<?xml version="1.0" encoding="UTF-8" standalone="no"?>
<!-- Created with Inkscape (http://www.inkscape.org/) -->

<svg
   width="344.85999mm"
   height="120.325mm"
   viewBox="0 0 344.85999 120.325"
   version="1.1"
   id="svg1045"
   inkscape:version="1.2.2 (b0a8486541, 2022-12-01)"
   sodipodi:docname="logo-dark.svg"
   inkscape:export-filename="../logo.png"
   inkscape:export-xdpi="65.919502"
   inkscape:export-ydpi="65.919502"
   xmlns:inkscape="http://www.inkscape.org/namespaces/inkscape"
   xmlns:sodipodi="http://sodipodi.sourceforge.net/DTD/sodipodi-0.dtd"
   xmlns="http://www.w3.org/2000/svg"
   xmlns:svg="http://www.w3.org/2000/svg">
  <sodipodi:namedview
     id="namedview1047"
     pagecolor="#ffffff"
     bordercolor="#666666"
     borderopacity="1.0"
     inkscape:showpageshadow="2"
     inkscape:pageopacity="0.0"
     inkscape:pagecheckerboard="0"
     inkscape:deskcolor="#d1d1d1"
     inkscape:document-units="mm"
     showgrid="false"
     inkscape:zoom="0.45824968"
     inkscape:cx="631.75167"
     inkscape:cy="228.04162"
     inkscape:window-width="1654"
     inkscape:window-height="869"
     inkscape:window-x="266"
     inkscape:window-y="53"
     inkscape:window-maximized="0"
     inkscape:current-layer="layer1" />
  <defs
     id="defs1042" />
  <g
     inkscape:label="Camada 1"
     inkscape:groupmode="layer"
     id="layer1"
     transform="translate(-26.938999,-57.339001)">
    <g
       id="g179"
       transform="translate(0,-80.334021)"
       style="fill:#39ace7;fill-opacity:1">
      <path
         d="m 55.416151,203.72095 v 5.77305 q -2.540155,1.38553 -5.696103,1.38553 v 0 q -11.546152,0 -11.546152,-11.77701 v 0 -22.70731 h -6.234924 v -4.92634 h 6.234924 v -9.69871 h 6.080974 v 9.69871 h 10.776409 v 4.92634 H 44.25487 v 22.86126 q 0,6.23489 5.850049,6.23489 v 0 q 3.002001,0 5.311232,-1.77041 z m 15.240921,-32.25208 v 39.02579 h -6.080974 v -39.02579 z m -0.230914,-15.08689 q 1.154614,1.15461 1.154614,2.84804 0,1.69342 -1.154614,2.80185 -1.154616,1.12382 -2.848051,1.12382 -1.693438,0 -2.817262,-1.12382 -1.108431,-1.10843 -1.108431,-2.80185 0,-1.69343 1.108431,-2.84804 1.123824,-1.15461 2.817262,-1.15461 1.693435,0 2.848051,1.15461 z m 38.625732,46.95411 v 5.77304 q -3.69477,2.23224 -9.082975,2.23224 v 0 q -9.236922,0 -14.655918,-5.8962 -5.434388,-5.88081 -5.434388,-14.34794 v 0 q 0,-8.31319 5.434388,-14.31716 5.418996,-6.00396 14.809863,-6.00396 v 0 q 5.00333,0 8.92903,2.15527 v 0 5.77304 q -3.54082,-2.38619 -8.31323,-2.38619 v 0 q -6.619797,0 -10.576277,4.26436 -3.971879,4.27975 -3.971879,10.59161 v 0 q 0.07698,6.31187 3.848719,10.49925 3.771743,4.20278 10.699437,4.20278 v 0 q 4.46451,0 8.31323,-2.54014 z m 15.39487,-46.95411 v 54.11268 h -6.004 v -54.11268 z m 23.32323,15.08689 -15.39487,18.55072 15.85671,20.47507 h -7.31256 l -15.70277,-20.47507 15.3179,-18.55072 z m 36.10097,31.3284 v 5.69607 q -4.54149,2.38619 -11.08431,2.38619 v 0 q -8.85205,0 -14.28644,-5.43436 -5.41899,-5.41897 -5.41899,-14.34794 v 0 q 0,-9.31385 4.84938,-14.70202 4.84939,-5.38818 12.46985,-5.38818 v 0 q 7.31256,0 11.62313,4.69541 4.31056,4.69541 4.31056,13.31649 v 0 q 0,2.46317 -0.38487,4.54147 v 0 h -26.63313 q 0.69277,5.77304 4.38754,8.852 3.69477,3.07896 9.69877,3.07896 v 0 q 6.54282,0 10.46851,-2.69409 z m -13.47051,-26.47904 v 0 q -4.38754,0 -7.46652,3.15593 -3.07897,3.15593 -3.61779,9.00595 v 0 h 20.93702 v -1.53947 q 0,-4.84937 -2.61712,-7.74359 -2.61713,-2.87882 -7.23559,-2.87882 z m 44.7221,27.40272 v 5.77305 q -2.54016,1.38553 -5.6961,1.38553 v 0 q -11.54616,0 -11.54616,-11.77701 v 0 -22.70731 h -6.23493 v -4.92634 h 6.23492 v -9.69871 h 6.08098 v 9.69871 h 10.77641 v 4.92634 h -10.77641 v 22.86126 q 0,6.23489 5.85005,6.23489 v 0 q 3.002,0 5.31123,-1.77041 z m 34.71543,1.30856 v 5.46515 h -28.09564 v -4.77238 l 19.78241,-28.86523 h -19.01266 v -5.38818 h 26.24825 v 4.46449 l -20.01333,29.09615 z"
         opacity="1"
         fill="#77d4fc"
         class="wordmark-text-0"
         data-fill-palette-color="primary"
         id="path609"
         style="fill:#39ace7;stroke-width:1.53949;fill-opacity:1" />
      <path
         d="m 62.020412,235.75786 0.364807,0.98679 q -1.01368,0.53225 -2.780874,0.53225 v 0 q -1.043578,0 -1.530986,-0.16146 v 0 q -1.249888,-0.42164 -1.635626,-1.4383 v 0 q -0.272102,-0.70868 -0.313964,-1.52502 -0.04483,-0.81932 -0.04483,-1.38149 0,-0.56216 0.02984,-1.09742 0.02999,-0.53523 0.140549,-1.03162 0.113591,-0.49638 0.34686,-0.92398 0.236222,-0.4276 0.636909,-0.74756 v 0 q 0.867149,-0.6728 2.496807,-0.6728 v 0 q 1.196061,0 2.20376,0.34986 v 0 q 0.269118,0.0868 0.409652,0.16746 v 0 l -0.364807,1.08245 q -1.402387,-0.54123 -2.296464,-0.54123 -0.894047,0 -1.31568,0.20334 -0.418618,0.20633 -0.651857,0.62196 v 0 q -0.394704,0.71467 -0.394704,2.62842 v 0 q 0,0.7655 0.05089,1.39644 0.05089,0.63092 0.257154,1.08545 v 0 q 0.430583,0.93294 1.776175,0.93294 1.348575,0 2.616411,-0.46648 z m 7.161496,-6.3303 v 0 q -1.45323,0 -2.882531,0.84025 v 0 6.86257 h -1.211025 v -12.42439 l 1.181113,-0.11662 v 4.75147 q 0.753529,-0.64289 1.955587,-0.92697 v 0 q 0.481412,-0.11662 1.139251,-0.11662 0.65784,0 1.154215,0.14948 0.496375,0.14949 0.789408,0.47843 v 0 q 0.523288,0.59208 0.523288,2.15298 v 0 6.05221 h -1.225973 v -5.83392 q 0,-1.04958 -0.203342,-1.35459 -0.203327,-0.30201 -0.48441,-0.40667 -0.281068,-0.10768 -0.735581,-0.10768 z m 12.504953,1.8988 v 2.72409 q 0,1.45326 0.13752,3.02013 v 0 l -1.079457,0.0897 -0.182396,-1.01668 q -0.926958,0.74457 -2.451947,1.03761 v 0 q -0.496374,0.0957 -0.885096,0.0957 -0.385738,0 -0.681769,-0.0359 -0.296032,-0.0389 -0.568134,-0.14358 -0.275101,-0.10465 -0.50834,-0.29603 -0.233224,-0.18839 -0.409652,-0.50236 v 0 q -0.370774,-0.66383 -0.370774,-1.59677 0,-0.92998 0.134491,-1.44428 0.134491,-0.51432 0.44853,-0.85822 v 0 q 0.621961,-0.67877 2.08714,-0.67877 1.468194,0 3.133717,0.55319 v 0 -0.94791 q 0,-1.58481 -1.306699,-1.87486 v 0 q -0.424616,-0.0957 -0.971818,-0.0957 v 0 q -1.249904,0 -2.592496,0.49638 v 0 l -0.269104,-1.05256 q 0.370775,-0.24819 1.898762,-0.44555 v 0 q 0.481426,-0.0568 1.157198,-0.0568 0.672789,0 1.324661,0.16148 0.648859,0.15848 1.079457,0.52329 v 0 q 0.876115,0.72363 0.876115,2.34432 z m -1.225973,1.86291 v 0 q -1.7074,-0.4306 -3.154648,-0.4306 v 0 q -0.891078,0 -1.181128,0.50834 v 0 q -0.197344,0.35882 -0.197344,1.05854 0,0.7027 0.07482,1.01668 0.0777,0.31398 0.254155,0.51731 v 0 q 0.340892,0.38873 1.1303,0.38873 v 0 q 1.234939,0 2.445964,-0.63692 v 0 q 0.37079,-0.18838 0.672789,-0.42162 v 0 q -0.04483,-0.78942 -0.04483,-2.00046 z m 8.393451,2.57458 0.415634,0.9509 q -1.190094,0.56215 -2.194793,0.56215 v 0 q -1.827003,0 -2.07519,-1.56388 v 0 q -0.05679,-0.37079 -0.05679,-1.07947 v 0 -5.17609 h -1.052544 v -0.89708 l 1.052544,-0.11662 0.188378,-1.98551 h 1.016664 v 1.98551 h 2.532687 v 1.01368 h -2.532687 v 5.15516 q 0,0.89706 0.128584,1.14525 v 0 q 0.24219,0.45153 0.965822,0.45153 0.720632,0 1.611711,-0.44555 z m 7.242235,0.55618 v 0 l -0.155498,0.81035 h -1.028629 v -12.42439 l 1.21104,-0.11662 v 4.68568 q 1.513024,-0.9778 2.921409,-0.9778 v 0 q 1.955574,0 2.481844,1.20507 v 0 q 0.32893,0.75951 0.37379,2.13203 v 0 q 0.0121,0.66382 0.0121,1.45923 v 0 0.5831 q 0,1.00171 -0.12556,1.50407 -0.12858,0.50536 -0.32591,0.86418 -0.19736,0.36182 -0.54124,0.63393 v 0 q -0.74454,0.59804 -2.128998,0.59804 -1.387454,0 -2.694167,-0.95687 z m 0.02696,-6.08211 v 5.12524 q 1.548918,0.84025 2.607444,0.84025 v 0 h 0.08678 q 1.249902,0 1.605732,-0.69373 v 0 q 0.19137,-0.34986 0.23623,-0.91201 0.0418,-0.56217 0.0418,-1.35159 v 0 -1.04958 q 0,-1.62967 -0.37077,-2.19184 v 0 q -0.364806,-0.56215 -1.387453,-0.56215 v 0 h -0.182395 q -0.91201,0 -2.117053,0.54124 v 0 q -0.313963,0.13752 -0.520289,0.25417 z m 15.441306,1.08844 v 2.72409 q 0,1.45326 0.13752,3.02013 v 0 l -1.07946,0.0897 -0.18239,-1.01668 q -0.92696,0.74457 -2.45495,1.03761 v 0 q -0.49636,0.0957 -0.88209,0.0957 -0.38574,0 -0.68177,-0.0359 -0.29604,-0.0389 -0.57112,-0.14358 -0.27212,-0.10465 -0.50534,-0.29603 -0.23324,-0.18839 -0.40967,-0.50236 v 0 q -0.37377,-0.66383 -0.37377,-1.59677 0,-0.92998 0.13752,-1.44428 0.13464,-0.51432 0.44853,-0.85822 v 0 q 0.61896,-0.67877 2.08715,-0.67877 1.46818,0 3.13072,0.55319 v 0 -0.94791 q 0,-1.58481 -1.30671,-1.87486 v 0 q -0.42161,-0.0957 -0.96882,-0.0957 v 0 q -1.24989,0 -2.59248,0.49638 v 0 l -0.26912,-1.05256 q 0.37077,-0.24819 1.89578,-0.44555 v 0 q 0.48141,-0.0568 1.15719,-0.0568 0.67579,0 1.32465,0.16148 0.65187,0.15848 1.08246,0.52329 v 0 q 0.87611,0.72363 0.87611,2.34432 z m -1.22597,1.86291 v 0 q -1.71039,-0.4306 -3.15465,-0.4306 v 0 q -0.89106,0 -1.18411,0.50834 v 0 q -0.19735,0.35882 -0.19735,1.05854 0,0.7027 0.0777,1.01668 0.0777,0.31398 0.25117,0.51731 v 0 q 0.34388,0.38873 1.13328,0.38873 v 0 q 1.23196,0 2.44598,-0.63692 v 0 q 0.37078,-0.18838 0.66979,-0.42162 v 0 q -0.0418,-0.78942 -0.0418,-2.00046 z m 4.02181,3.22645 0.52327,-1.0077 q 1.50408,0.84025 3.02308,0.84025 v 0 q 1.26187,0 1.48314,-0.90006 v 0 q 0.0718,-0.30501 0.0718,-0.74756 0,-0.44255 -0.10162,-0.68477 -0.10163,-0.24519 -0.34386,-0.36779 -0.23922,-0.11965 -0.63691,-0.17643 -0.40069,-0.0598 -1.01368,-0.16446 -0.613,-0.10768 -1.12432,-0.23921 -0.50833,-0.13161 -0.86715,-0.37977 v 0 q -0.75951,-0.53225 -0.7296,-1.79413 v 0 -0.1824 q 0,-1.33066 0.87612,-1.89281 v 0 q 0.84623,-0.5532 2.79582,-0.37677 v 0 q 1.32764,0.12268 2.11705,0.4575 v 0 l -0.34386,1.1034 q -0.87613,-0.37378 -2.1021,-0.54124 v 0 q -0.37976,-0.0509 -0.71167,-0.0509 -0.33191,0 -0.60401,0.0509 -0.26912,0.0509 -0.45153,0.19138 v 0 q -0.34984,0.28407 -0.36479,1.05854 v 0 q -0.0209,0.91201 0.51132,1.1602 v 0 q 0.51131,0.24222 1.21101,0.33192 0.7027,0.0927 1.14825,0.16147 0.44255,0.0688 0.80734,0.18539 0.3678,0.11662 0.62794,0.37379 v 0 q 0.55019,0.51731 0.53525,1.8031 v 0 q -0.0389,2.23969 -1.86888,2.55365 v 0 q -0.55617,0.0957 -1.10935,0.0957 -0.55619,0 -1.01966,-0.0688 -0.46347,-0.0718 -0.88808,-0.19436 v 0 q -0.80138,-0.22726 -1.45024,-0.59805 z m 15.67156,-0.78942 0.35883,1.04359 q -1.51304,0.60701 -3.33706,0.60701 v 0 q -1.05853,0 -1.79709,-0.21829 v 0 q -1.17515,-0.33789 -1.56088,-1.38745 v 0 q -0.35887,-0.98679 -0.35887,-2.92146 v 0 -0.37079 q 0,-2.31444 0.96283,-3.25038 v 0 q 0.87015,-0.83128 2.90048,-0.83128 v 0 q 1.97652,0 2.70014,0.9778 v 0 q 0.34985,0.47546 0.46349,1.15125 0.11359,0.6728 0.11359,1.28579 v 0 q 0,0.95687 -0.0448,1.48316 v 0 q -1.02863,0.0448 -1.84495,0.0448 v 0 q 0,0 -1.17513,0 v 0 q -1.84195,0 -2.8347,-0.16148 v 0 q 0,1.68052 0.4246,2.34434 v 0 q 0.51731,0.81035 2.06622,0.81035 1.54592,0 2.96327,-0.60701 z m -5.45411,-3.40288 h 4.66471 v -0.69972 q 0,-1.14525 -0.44555,-1.63564 v 0 q -0.49636,-0.54722 -1.71338,-0.54722 v 0 q -1.4622,0 -1.99445,0.63393 v 0 q -0.51133,0.60702 -0.51133,2.24865 z m 14.78349,4.93686 -0.17643,-1.00171 q -1.53994,1.11833 -3.13072,1.11833 v 0 q -1.75822,0 -2.3443,-1.29178 v 0 q -0.3349,-0.72961 -0.37676,-1.54593 -0.0389,-0.81336 -0.0389,-1.42933 0,-0.616 0.0121,-1.24394 0.009,-0.62794 0.0897,-1.1632 0.0807,-0.53227 0.25117,-0.95987 0.17345,-0.42461 0.49339,-0.72663 v 0 q 0.66383,-0.61897 2.1948,-0.61897 1.52799,0 2.76292,0.53225 v 0 -4.12351 l 1.21103,-0.11662 v 8.54905 q 0,2.51779 0.14055,3.93216 v 0 z m -0.26912,-4.08165 0.006,-3.2474 q -1.31268,-0.43956 -2.54165,-0.43956 v 0 q -0.88808,0 -1.17515,0.14661 -0.28407,0.14645 -0.43358,0.37975 -0.14949,0.23324 -0.24519,0.64289 v 0 q -0.16745,0.76551 -0.16745,2.52377 v 0 0.16146 q 0,1.64164 0.35883,2.26959 v 0 q 0.38572,0.66682 1.43828,0.66682 v 0 h 0.10768 q 1.00769,0 2.14695,-0.6429 v 0 q 0.31398,-0.17642 0.54122,-0.34985 v 0 -0.0152 q -0.0359,-0.67878 -0.0359,-2.09615 z m 11.99961,2.68522 0.41564,0.9509 q -1.19009,0.56215 -2.19779,0.56215 v 0 q -1.82401,0 -2.07219,-1.56388 v 0 q -0.0598,-0.37079 -0.0598,-1.07947 v 0 -5.17609 h -1.04956 v -0.89708 l 1.04956,-0.11662 0.19136,-1.98551 h 1.01368 v 1.98551 h 2.53269 v 1.01368 h -2.53269 v 5.15516 q 0,0.89706 0.13162,1.14525 v 0 q 0.2392,0.45153 0.96283,0.45153 0.72362,0 1.6147,-0.44555 z m 3.23838,-9.40127 v 0 q -0.4874,0 -0.62793,-0.13752 v 0 q -0.21829,-0.22726 -0.21829,-0.62496 0,-0.39771 0.0479,-0.57114 0.0479,-0.17044 0.14357,-0.26613 v 0 q 0.17343,-0.17343 0.53524,-0.17343 0.36183,0 0.51731,0.0359 0.15848,0.0359 0.26015,0.13752 v 0 q 0.17641,0.17643 0.17641,0.57414 0,0.3977 -0.0418,0.56813 -0.0389,0.17344 -0.13464,0.27512 v 0 q -0.1824,0.18239 -0.65784,0.18239 z m -0.57412,10.7678 -0.0152,-8.6866 h 1.19607 v 8.6866 z m 10.36399,-1.37252 0.3648,0.98679 q -1.01368,0.53225 -2.78087,0.53225 v 0 q -1.04358,0 -1.53397,-0.16146 v 0 q -1.24691,-0.42164 -1.63563,-1.4383 v 0 q -0.26912,-0.70868 -0.31398,-1.52502 -0.0418,-0.81932 -0.0418,-1.38149 0,-0.56216 0.0298,-1.09742 0.027,-0.53523 0.14055,-1.03162 0.11359,-0.49638 0.34686,-0.92398 0.23324,-0.4276 0.63692,-0.74756 v 0 q 0.86715,-0.6728 2.49679,-0.6728 v 0 q 1.19608,0 2.20378,0.34986 v 0 q 0.26912,0.0868 0.40965,0.16746 v 0 l -0.36779,1.08245 q -1.39942,-0.54123 -2.29348,-0.54123 -0.89406,0 -1.31568,0.20334 -0.41862,0.20633 -0.65186,0.62196 v 0 q -0.3947,0.71467 -0.3947,2.62842 v 0 q 0,0.7655 0.0509,1.39644 0.0509,0.63092 0.25415,1.08545 v 0 q 0.4306,0.93294 1.77916,0.93294 1.34559,0 2.61643,-0.46648 z m 3.03504,1.37252 V 224.7329 l 1.21401,-0.12858 v 7.53239 q 0.29005,0.0598 0.70268,-0.29903 0.41266,-0.35883 0.7356,-0.68177 0.31995,-0.32593 0.66382,-0.71168 v 0 q 1.23196,-1.42335 1.62068,-2.00045 v 0 h 1.44425 q -0.15847,0.36481 -0.73558,1.03461 v 0 l -0.97779,1.1034 q -0.79839,0.8552 -1.27382,1.26187 -0.47844,0.40967 -0.63392,0.46946 v 0 0.0718 l 0.22127,0.11071 q 0.47245,0.22428 1.24092,1.20506 v 0 l 2.72108,3.4298 h -1.53098 l -1.8569,-2.43105 q -1.28279,-1.68052 -1.96156,-1.73733 v 0 l -0.16148,-0.0151 q -0.0718,-0.006 -0.13161,-0.003 -0.0568,0.003 -0.0868,0.003 v 0 4.18333 z m 15.16921,-1.50408 0.35882,1.04359 q -1.51005,0.60701 -3.33706,0.60701 v 0 q -1.05852,0 -1.7941,-0.21829 v 0 q -1.17515,-0.33789 -1.56387,-1.38745 v 0 q -0.35583,-0.98679 -0.35583,-2.92146 v 0 -0.37079 q 0,-2.31444 0.96284,-3.25038 v 0 q 0.86715,-0.83128 2.89748,-0.83128 v 0 q 1.97952,0 2.70313,0.9778 v 0 q 0.34986,0.47546 0.46348,1.15125 0.11056,0.6728 0.11056,1.28579 v 0 q 0,0.95687 -0.0418,1.48316 v 0 q -1.02861,0.0448 -1.84793,0.0448 v 0 q 0,0 -1.17513,0 v 0 q -1.83897,0 -2.83172,-0.16148 v 0 q 0,1.68052 0.42162,2.34434 v 0 q 0.52029,0.81035 2.06622,0.81035 1.54892,0 2.96327,-0.60701 z m -5.45111,-3.40288 h 4.66468 v -0.69972 q 0,-1.14525 -0.44553,-1.63564 v 0 q -0.49637,-0.54722 -1.71636,-0.54722 v 0 q -1.45922,0 -1.99147,0.63393 v 0 q -0.51132,0.60702 -0.51132,2.24865 z m 12.8249,3.54043 0.41563,0.9509 q -1.19008,0.56215 -2.19778,0.56215 v 0 q -1.82401,0 -2.0722,-1.56388 v 0 q -0.0598,-0.37079 -0.0598,-1.07947 v 0 -5.17609 h -1.04956 v -0.89708 l 1.04956,-0.11662 0.19138,-1.98551 h 1.01367 v 1.98551 h 2.53268 v 1.01368 h -2.53268 v 5.15516 q 0,0.89706 0.13161,1.14525 v 0 q 0.2422,0.45153 0.96284,0.45153 0.72363,0 1.61469,-0.44555 z m 5.59166,0.65187 0.52327,-1.0077 q 1.50407,0.84025 3.02308,0.84025 v 0 q 1.26485,0 1.48313,-0.90006 v 0 q 0.0718,-0.30501 0.0718,-0.74756 0,-0.44255 -0.10163,-0.68477 -0.10163,-0.24519 -0.34386,-0.36779 -0.23922,-0.11965 -0.63692,-0.17643 -0.39769,-0.0598 -1.01069,-0.16446 -0.61597,-0.10768 -1.1243,-0.23921 -0.51132,-0.13161 -0.87015,-0.37977 v 0 q -0.75951,-0.53225 -0.7296,-1.79413 v 0 -0.1824 q 0,-1.33066 0.87612,-1.89281 v 0 q 0.84622,-0.5532 2.79582,-0.37677 v 0 q 1.32765,0.12268 2.11706,0.4575 v 0 l -0.34387,1.1034 q -0.87613,-0.37378 -2.1021,-0.54124 v 0 q -0.37975,-0.0509 -0.71167,-0.0509 -0.33191,0 -0.60103,0.0509 -0.2721,0.0509 -0.45451,0.19138 v 0 q -0.34984,0.28407 -0.36479,1.05854 v 0 q -0.0209,0.91201 0.51131,1.1602 v 0 q 0.51132,0.24222 1.21102,0.33192 0.7027,0.0927 1.14825,0.16147 0.44553,0.0688 0.81032,0.18539 0.36481,0.11662 0.62795,0.37379 v 0 q 0.5472,0.51731 0.53225,1.8031 v 0 q -0.0359,2.23969 -1.86886,2.55365 v 0 q -0.55617,0.0957 -1.10936,0.0957 -0.55618,0 -1.01965,-0.0688 -0.46349,-0.0718 -0.88509,-0.19436 v 0 q -0.80437,-0.22726 -1.45323,-0.59805 z m 8.70741,3.76769 0.32891,-0.95089 q 0.53226,0.19138 0.87315,0.19138 0.33788,0 0.44553,-0.0209 0.10466,-0.018 0.21529,-0.0747 v 0 q 0.25417,-0.14055 0.37976,-0.45451 v 0 q 0.305,-0.74458 0.53225,-1.63268 v 0 l -3.35199,-8.79722 h 1.35156 l 2.26357,6.40207 0.34088,1.12432 0.31398,-1.1333 2.00043,-6.39309 h 1.27082 l -3.66297,10.74387 q -0.40367,1.25591 -1.8569,1.25591 v 0 q -0.918,0 -1.44427,-0.26016 z m 8.70742,-3.76769 0.52627,-1.0077 q 1.50407,0.84025 3.02308,0.84025 v 0 q 1.26187,0 1.48014,-0.90006 v 0 q 0.0748,-0.30501 0.0748,-0.74756 0,-0.44255 -0.10163,-0.68477 -0.10162,-0.24519 -0.34386,-0.36779 -0.24222,-0.11965 -0.6399,-0.17643 -0.39769,-0.0598 -1.01069,-0.16446 -0.61299,-0.10768 -1.12431,-0.23921 -0.51131,-0.13161 -0.86715,-0.37977 v 0 q -0.7595,-0.53225 -0.7296,-1.79413 v 0 -0.1824 q 0,-1.33066 0.87611,-1.89281 v 0 q 0.84624,-0.5532 2.79584,-0.37677 v 0 q 1.32763,0.12268 2.11704,0.4575 v 0 l -0.34386,1.1034 q -0.87613,-0.37378 -2.10211,-0.54124 v 0 q -0.37975,-0.0509 -0.71166,-0.0509 -0.33191,0 -0.60402,0.0509 -0.26911,0.0509 -0.45151,0.19138 v 0 q -0.34986,0.28407 -0.36481,1.05854 v 0 q -0.0209,0.91201 0.51133,1.1602 v 0 q 0.51131,0.24222 1.21102,0.33192 0.6997,0.0927 1.14524,0.16147 0.44554,0.0688 0.81033,0.18539 0.36481,0.11662 0.62795,0.37379 v 0 q 0.5472,0.51731 0.53225,1.8031 v 0 q -0.0359,2.23969 -1.86886,2.55365 v 0 q -0.55319,0.0957 -1.10936,0.0957 -0.55318,0 -1.01666,-0.0688 -0.46348,-0.0718 -0.8881,-0.19436 v 0 q -0.80137,-0.22726 -1.45323,-0.59805 z m 13.09103,-0.65187 0.41564,0.9509 q -1.1901,0.56215 -2.19778,0.56215 v 0 q -1.827,0 -2.07519,-1.56388 v 0 q -0.0568,-0.37079 -0.0568,-1.07947 v 0 -5.17609 h -1.05255 v -0.89708 l 1.05255,-0.11662 0.18838,-1.98551 h 1.01667 v 1.98551 h 2.53268 v 1.01368 h -2.53268 v 5.15516 q 0,0.89706 0.13161,1.14525 v 0 q 0.23921,0.45153 0.96284,0.45153 0.72363,0 1.61469,-0.44555 z m 8.81805,-0.13752 0.35584,1.04359 q -1.51004,0.60701 -3.33705,0.60701 v 0 q -1.05851,0 -1.79411,-0.21829 v 0 q -1.17515,-0.33789 -1.56387,-1.38745 v 0 q -0.35582,-0.98678 -0.35582,-2.92146 v 0 -0.37079 q 0,-2.31444 0.96283,-3.25038 v 0 q 0.87015,-0.83128 2.8975,-0.83128 v 0 q 1.9795,0 2.70312,0.9778 v 0 q 0.34985,0.47546 0.46349,1.15125 0.11056,0.6728 0.11056,1.28579 v 0 q 0,0.95687 -0.0418,1.48316 v 0 q -1.02863,0.0448 -1.84795,0.0448 v 0 q 0,0 -1.17514,0 v 0 q -1.83896,0 -2.83171,-0.16148 v 0 q 0,1.68052 0.42162,2.34434 v 0 q 0.52029,0.81035 2.06622,0.81035 1.54892,0 2.96626,-0.60701 z m -5.45409,-3.40288 h 4.66469 v -0.69972 q 0,-1.14525 -0.44554,-1.63564 v 0 q -0.49637,-0.54722 -1.71636,-0.54722 v 0 q -1.45921,0 -1.99147,0.63393 v 0 q -0.51132,0.60702 -0.51132,2.24865 z m 12.78903,-2.78689 v 0 q -1.19011,0 -2.59847,0.84025 v 0 6.8536 h -1.21403 v -8.6866 h 1.06751 l 0.11662,0.89706 q 1.2768,-1.04359 2.8616,-1.04359 v 0 q 0.90602,0 1.42631,0.26015 0.52329,0.25717 0.75652,0.84923 v 0 q 1.61471,-1.10938 3.06495,-1.10938 v 0 q 1.37249,0 1.90773,0.62794 v 0 q 0.50834,0.60404 0.50834,2.15298 v 0 6.05221 h -1.22597 v -5.82496 q 0,-1.05255 -0.20335,-1.35457 -0.20332,-0.30201 -0.48441,-0.40967 -0.28106,-0.10465 -0.65784,-0.10465 -0.37675,0 -0.70866,0.0688 -0.33191,0.0688 -0.67579,0.18539 v 0 q -0.69372,0.24221 -1.32764,0.613 v 0 q 0.0359,0.43956 0.0359,0.77447 v 0 6.05222 h -1.22597 v -5.82496 q 0,-1.05256 -0.20335,-1.35457 -0.20631,-0.30202 -0.48739,-0.40967 -0.28107,-0.10466 -0.7326,-0.10466 z"
         opacity="1"
         fill="#4b91f1"
         class="slogan-text-1"
         data-fill-palette-color="secondary"
         id="path606"
         style="fill:#39ace7;stroke-width:0.299021;fill-opacity:1" />
    </g>
    <rect
       width="30.155621"
       height="110.325"
       fill="#4b91f1"
       stroke="transparent"
       data-fill-palette-color="accent"
       x="263.09305"
       fill-opacity="1"
       id="rect141"
       y="62.339001"
       style="stroke-width:0.550959" />
    <rect
       width="30.155621"
       height="110.325"
       fill="#4b91f1"
       stroke="transparent"
       data-fill-palette-color="accent"
       x="299.86823"
       fill-opacity="0.75"
       id="rect143"
       y="62.339001"
       style="stroke-width:0.550959" />
    <rect
       width="30.155621"
       height="110.325"
       fill="#4b91f1"
       stroke="transparent"
       data-fill-palette-color="accent"
       x="336.64343"
       fill-opacity="0.5"
       id="rect145"
       y="62.339001"
       style="stroke-width:0.550959" />
  </g>
</svg>
