<svg version="1.1" id="Layer_1" xmlns="http://www.w3.org/2000/svg" xmlns:xlink="http://www.w3.org/1999/xlink" x="0px" y="0px"
	 width="100%" viewBox="0 0 3730 1163" enable-background="new 0 0 3730 1163" xml:space="preserve">
<path fill="#FFFFFF" opacity="1.000000" stroke="none" 
	d="
M2642.000000,1166.000000 
	C1761.333374,1166.000000 881.666687,1166.000000 2.000000,1166.000000 
	C2.000000,778.000000 2.000000,390.000000 2.000000,2.000000 
	C1245.333374,2.000000 2488.666748,2.000000 3732.000000,2.000000 
	C3732.000000,390.000000 3732.000000,778.000000 3732.000000,1166.000000 
	C3369.000000,1166.000000 3006.000000,1166.000000 2642.000000,1166.000000 
M730.134399,616.153015 
	C728.601318,614.587891 726.463257,613.290649 725.632629,611.414490 
	C719.887207,598.437805 724.361938,590.632629 738.432068,589.825317 
	C756.672791,588.778748 774.951965,588.422180 793.208191,587.622681 
	C805.480103,587.085388 817.756470,586.496216 830.001343,585.548523 
	C838.370056,584.900879 841.240845,581.218079 841.318176,572.371704 
	C841.376648,565.678955 837.684448,561.275940 830.536987,560.363831 
	C822.972595,559.398438 815.354187,558.520325 807.741638,558.335999 
	C788.762756,557.876343 769.768066,558.045715 750.791748,557.524048 
	C742.283569,557.290100 733.804382,556.006042 724.197083,555.092468 
	C724.197083,550.547668 724.144104,546.969543 724.207092,543.393433 
	C724.394897,532.731934 726.165222,530.482422 736.963135,530.005554 
	C748.938416,529.476685 760.966736,530.110901 772.937500,529.529785 
	C782.503662,529.065369 792.015625,527.514404 801.556824,526.494141 
	C805.777893,526.042786 808.325134,523.479797 809.208618,519.671021 
	C812.927917,503.635956 813.805481,487.439667 810.458557,471.248566 
	C809.203491,465.177094 804.768616,462.423309 797.999329,462.262421 
	C791.603760,462.110443 789.560242,463.327515 787.542175,470.507568 
	C785.939514,476.209503 785.239258,482.176422 784.311890,488.053070 
	C783.593262,492.606964 781.126160,495.540527 776.574463,495.831696 
	C763.005310,496.699860 749.418396,497.744843 735.836731,497.768768 
	C729.160400,497.780518 726.740479,494.518707 725.695007,487.852112 
	C725.080994,483.936462 724.415833,479.975800 724.382629,476.030304 
	C724.077271,439.713593 724.035034,403.394226 723.611206,367.079224 
	C723.491272,356.805817 722.631104,346.517426 721.587646,336.289246 
	C721.123962,331.743530 719.932190,327.054810 717.955566,322.970764 
	C716.940186,320.872681 712.952515,318.253326 711.200073,318.788788 
	C699.506714,322.362030 688.271606,317.697815 676.846130,317.424591 
	C668.956238,317.235931 666.054443,313.154724 665.785950,304.805664 
	C665.436279,293.931641 665.556335,283.035431 665.742920,272.153381 
	C665.911926,262.296967 666.964600,261.479736 677.053406,259.501831 
	C683.534119,258.231262 690.284546,257.357117 694.879272,251.621399 
	C698.294067,247.358643 699.105469,242.614761 697.559082,237.516586 
	C695.942627,232.187515 691.309387,230.441376 686.617310,230.457047 
	C674.674500,230.496918 662.689087,230.729279 650.807190,231.823685 
	C641.920410,232.642242 639.170532,235.514328 637.786255,244.217255 
	C636.539734,252.054611 636.194519,260.049194 635.705627,267.990051 
	C634.930298,280.585266 634.381165,293.194305 633.705627,305.795837 
	C633.465149,310.283020 632.363525,314.548035 628.101501,316.819763 
	C620.787842,320.718079 606.625549,314.479584 605.193359,306.307281 
	C603.653259,297.519073 602.862549,288.553375 602.404785,279.631287 
	C601.450989,261.044434 601.022095,242.431107 600.171265,223.838104 
	C599.960022,219.221588 599.202393,214.591553 598.270264,210.055206 
	C596.719421,202.507843 594.935059,201.361588 585.481506,200.830978 
	C579.544800,200.497757 575.515564,203.108307 574.134460,209.587158 
	C572.758911,216.039795 571.818115,222.716934 571.788696,229.300568 
	C571.691956,250.949997 572.185913,272.601410 572.241028,294.252594 
	C572.254517,299.544983 571.697571,304.874878 570.918030,310.115387 
	C570.608337,312.197327 569.482849,315.042542 567.865112,315.888458 
	C561.649414,319.138519 554.939453,318.592438 548.532532,316.324219 
	C542.686279,314.254486 544.064636,308.559937 543.846375,304.270142 
	C543.053223,288.675232 542.956299,273.045807 542.247375,257.445251 
	C541.947266,250.840607 541.182312,244.195450 539.893738,237.714798 
	C538.624939,231.333466 536.417542,229.853394 530.296143,229.880463 
	C515.994995,229.943695 501.691620,229.997330 487.394470,230.302444 
	C478.625946,230.489578 474.066528,235.598740 474.325104,244.297592 
	C474.563507,252.319260 479.126678,256.111847 488.421753,255.983017 
	C492.748322,255.923035 497.091248,255.539444 501.396912,255.798462 
	C509.675659,256.296448 511.640442,257.978333 511.590302,266.006714 
	C511.515717,277.948608 511.114197,289.915375 510.160187,301.816101 
	C509.431885,310.900848 505.488922,314.574524 496.136261,315.733978 
	C488.244537,316.712311 480.276550,317.155884 472.328491,317.570831 
	C467.343109,317.831146 462.310547,317.895203 457.337189,317.529663 
	C447.029236,316.772034 443.178253,312.913971 442.375427,302.563934 
	C441.886810,296.264862 442.027161,289.919495 441.663055,283.607697 
	C441.147400,274.668457 440.679291,265.713837 439.722046,256.816223 
	C438.792847,248.179352 436.588745,246.117630 428.090668,244.510956 
	C426.135864,244.141357 424.122742,243.988113 422.130371,243.923691 
	C404.190796,243.343750 386.252289,242.552795 368.308136,242.379166 
	C361.050354,242.308929 353.745361,243.365417 346.522766,244.354187 
	C337.147583,245.637650 335.423920,247.387802 333.257263,256.536713 
	C332.726654,258.777344 332.395325,261.105988 332.317505,263.405853 
	C332.024811,272.056885 331.701935,280.712982 331.712891,289.366760 
	C331.728088,301.358490 327.044525,309.749664 314.948456,313.260437 
	C309.214294,314.924744 303.474762,316.775726 298.034210,319.205994 
	C284.953064,325.049194 274.500671,321.847168 264.917999,311.631561 
	C258.581177,304.876190 251.170929,299.101074 244.047333,293.117981 
	C236.980194,287.182343 233.959167,286.962860 226.390503,291.918915 
	C223.384766,293.887085 220.767380,296.533936 218.241486,299.132568 
	C211.775131,305.785126 205.593964,312.717712 199.058838,319.300140 
	C177.253174,341.263519 155.224701,363.007111 133.559174,385.107056 
	C128.509109,390.258423 124.555328,396.484436 119.843437,402.542175 
	C123.430962,407.816345 126.221367,412.773743 129.830139,417.038666 
	C136.483047,424.901062 143.719589,432.266479 150.512833,440.014435 
	C154.932281,445.054993 156.808655,450.689392 154.005020,457.448425 
	C150.569153,465.731659 147.730301,474.261414 144.344589,482.566895 
	C141.146301,490.412598 135.480225,494.437958 126.563515,494.374634 
	C116.292526,494.301697 105.995331,494.898010 95.745262,495.675293 
	C83.291618,496.619659 78.663445,501.025635 76.499710,513.186035 
	C76.034599,515.799988 75.801529,518.478333 75.725609,521.134644 
	C75.212761,539.077881 74.377518,557.023743 74.406715,574.967590 
	C74.442406,596.908875 75.119370,618.851929 75.763573,640.787048 
	C75.898682,645.387756 76.714867,650.057617 77.885155,654.520386 
	C80.377136,664.023315 85.032097,667.708252 94.975426,668.163940 
	C100.281883,668.407166 105.618149,667.917114 110.941505,667.895752 
	C117.596603,667.868958 124.254349,667.898621 130.907104,668.061462 
	C137.631516,668.226013 141.975815,671.463135 144.195328,678.014771 
	C146.967773,686.198669 149.552017,694.562744 153.456635,702.216919 
	C158.257278,711.627563 155.473450,718.717041 148.956802,725.529480 
	C143.665024,731.061462 138.167831,736.426147 133.238510,742.267395 
	C128.396118,748.005615 122.646767,753.299927 120.753250,761.344116 
	C123.872192,765.425049 126.724365,769.525269 129.945007,773.312134 
	C153.689850,801.231384 179.829758,826.831726 206.524979,851.873169 
	C213.306107,858.234253 220.447830,864.239014 227.706345,870.054993 
	C234.523483,875.517212 236.710617,875.710083 243.655457,870.668274 
	C249.278702,866.586060 254.260071,861.616333 259.500122,857.010620 
	C264.734924,852.409607 270.040070,847.881409 275.123138,843.117249 
	C279.600983,838.920288 285.078735,838.528748 290.084747,840.345764 
	C300.377350,844.081848 310.311951,848.799744 320.417450,853.057617 
	C324.666351,854.847839 326.075012,858.189148 326.259491,862.528992 
	C326.795288,875.135071 327.670441,887.729553 328.031799,900.339417 
	C328.375854,912.347778 336.054749,920.075989 347.911926,919.798889 
	C349.902039,919.752319 351.898743,919.906799 353.890167,920.011292 
	C364.161255,920.550720 374.434753,921.591431 384.701508,921.526794 
	C396.972595,921.449585 409.240967,920.485718 421.502686,919.771423 
	C423.790833,919.638184 426.050110,918.905579 428.308777,918.388916 
	C435.106232,916.833923 439.372650,912.407043 441.484009,906.008545 
	C442.616821,902.575623 443.366302,898.918945 443.631500,895.314941 
	C444.484253,883.726746 444.931793,872.109192 445.740753,860.517273 
	C446.108917,855.241882 446.750702,849.964600 447.641785,844.752014 
	C448.797333,837.992371 452.998535,833.897522 459.887939,833.756287 
	C473.430115,833.478699 487.008698,833.146240 500.519989,833.845764 
	C509.245758,834.297546 511.633789,837.389771 511.576141,845.990417 
	C511.507141,856.273926 510.916199,866.565247 510.211304,876.829834 
	C509.622314,885.406738 507.383179,889.227478 497.717621,890.486450 
	C491.711792,891.268677 485.429504,893.908875 480.410767,897.368286 
	C472.634583,902.728271 473.159973,912.160767 481.219208,917.097778 
	C484.649078,919.198792 489.321320,920.090820 493.432678,920.101501 
	C504.366058,920.129883 515.309448,918.905334 526.233521,919.089722 
	C535.054504,919.238525 537.724304,918.637207 539.469849,910.722168 
	C541.102722,903.317993 541.826660,895.647034 542.241028,888.054810 
	C543.019409,873.791626 543.158875,859.494324 543.865051,845.226074 
	C544.020142,842.092163 544.816040,836.748657 546.376953,836.324463 
	C552.269287,834.723511 558.755615,833.630920 564.714294,834.483215 
	C569.482117,835.165161 569.711548,841.057617 570.045166,845.294495 
	C570.800293,854.886108 571.481323,864.505005 571.603699,874.120300 
	C571.841248,892.782410 571.426514,911.454346 571.783630,930.112610 
	C571.948059,938.704529 572.831787,947.352112 574.264404,955.826477 
	C575.258423,961.705811 583.218628,966.484192 589.615967,966.255920 
	C594.797363,966.070984 596.855042,964.479614 598.333313,956.086914 
	C600.050964,946.335327 601.282410,936.399963 601.550964,926.512451 
	C602.048584,908.194214 601.473206,889.848999 601.781982,871.522461 
	C601.943848,861.915527 602.820190,852.303101 603.770081,842.732483 
	C604.549561,834.877991 607.407959,832.590271 615.434631,832.283203 
	C624.298096,831.944153 627.071167,833.892822 628.997009,841.820007 
	C629.231506,842.785217 629.613586,843.749390 629.646790,844.723572 
	C630.280945,863.312744 631.177490,881.900879 631.331970,900.494873 
	C631.398682,908.519409 638.270142,919.611328 646.002869,919.936340 
	C659.563110,920.506104 673.192688,920.442566 686.747986,919.754150 
	C695.757019,919.296570 698.660645,915.000916 698.318970,905.740356 
	C697.980164,896.558533 693.831848,892.148315 685.051697,891.628296 
	C681.739441,891.432129 678.368774,891.549133 675.127808,890.958069 
	C667.437378,889.555481 665.987061,888.152771 665.800537,880.603333 
	C665.506836,868.719360 665.420288,856.814697 665.779297,844.934937 
	C666.081543,834.935608 668.451721,832.740112 678.311707,832.340210 
	C685.299744,832.056702 692.316772,832.500977 699.306091,832.234619 
	C718.060120,831.519775 721.235718,824.557190 722.112122,811.130066 
	C722.933899,798.539917 723.487549,785.915955 723.627258,773.301025 
	C723.867126,751.638855 723.452393,729.968445 723.775391,708.308411 
	C723.998047,693.377808 724.719788,678.439026 725.765198,663.542297 
	C726.356445,655.116760 728.501099,652.811401 736.525146,652.410828 
	C748.140259,651.830872 759.821228,651.827759 771.441162,652.334961 
	C779.796753,652.699768 780.550842,654.366577 782.409668,662.364685 
	C783.738159,668.080933 785.384338,673.951538 788.190308,679.034729 
	C791.258850,684.593567 797.324951,684.974792 803.191711,684.349670 
	C809.341003,683.694519 809.691345,678.522644 811.012939,674.161926 
	C811.392578,672.909363 811.646484,671.564209 811.650269,670.260620 
	C811.681946,659.288696 812.262634,648.271667 811.473572,637.355347 
	C810.376465,622.177246 807.306763,619.682556 791.757629,618.190063 
	C790.100281,618.031067 788.449768,617.718201 786.790710,617.672791 
	C768.512207,617.172607 750.232666,616.711304 730.134399,616.153015 
M1043.202026,310.153137 
	C1028.338867,311.532623 1013.450378,312.689697 998.622498,314.379089 
	C990.365662,315.319855 984.390503,319.349701 982.853516,328.440125 
	C981.526489,336.288696 979.336853,343.990784 977.989624,351.836761 
	C971.531189,389.451996 965.250305,427.097656 958.866455,464.725739 
	C951.981689,505.306061 944.918701,545.856689 938.178162,586.460876 
	C930.349976,633.617188 922.647705,680.795593 915.197021,728.012756 
	C913.028931,741.752441 911.426453,755.624207 910.468384,769.497925 
	C909.752747,779.861084 912.355530,783.237244 922.374268,784.103943 
	C937.565613,785.418213 952.866089,785.628845 968.127319,785.885315 
	C973.036926,785.967896 978.026245,784.997070 982.877869,784.010376 
	C991.037842,782.351013 995.561218,777.123291 996.272339,768.802063 
	C996.836548,762.200012 997.212402,755.582031 997.694153,748.972717 
	C997.935120,745.667419 997.916504,742.305237 998.549377,739.073364 
	C1000.839355,727.379761 1003.662048,715.783875 1005.707642,704.050659 
	C1008.156128,690.006042 1009.733215,675.809021 1012.203369,661.768677 
	C1014.895996,646.463867 1017.487793,639.285156 1037.820679,639.605225 
	C1051.811279,639.825562 1065.809448,639.539062 1079.801392,639.708008 
	C1084.430542,639.763916 1089.121582,640.179810 1093.654785,641.082214 
	C1097.739746,641.895447 1100.807861,644.258423 1101.608887,648.931824 
	C1105.757690,673.137024 1109.961792,697.333191 1114.273560,721.509888 
	C1116.660278,734.892395 1118.916138,748.316895 1121.925415,761.564697 
	C1124.994751,775.076355 1133.777344,782.905945 1147.828979,783.800110 
	C1161.412720,784.664429 1175.022949,785.237732 1188.630249,785.519409 
	C1192.382935,785.597229 1196.166748,784.176270 1200.981567,783.239685 
	C1200.188232,771.783081 1200.208008,761.110474 1198.591675,750.691711 
	C1192.793823,713.316650 1186.301758,676.050049 1180.331909,638.700928 
	C1169.957153,573.795166 1158.010986,509.189575 1143.884399,444.993073 
	C1137.318726,415.155762 1130.701172,385.329620 1124.002319,355.521973 
	C1122.407104,348.423859 1119.059082,341.425629 1119.029663,334.371002 
	C1119.009399,329.506653 1117.890869,326.041412 1115.181396,322.784241 
	C1112.422974,319.468231 1109.414795,316.211517 1105.972778,313.662048 
	C1103.458374,311.799591 1100.084839,310.147339 1097.058350,310.082855 
	C1079.754639,309.714050 1062.440186,309.848907 1043.202026,310.153137 
M2095.402344,396.242676 
	C2088.185791,436.772339 2080.890381,477.288177 2073.776367,517.835815 
	C2067.295166,554.777405 2060.881104,591.731750 2054.675293,628.720337 
	C2048.414062,666.039734 2042.289673,703.383911 2036.453857,740.771667 
	C2034.922974,750.579712 2034.075073,760.586914 2034.030029,770.507690 
	C2033.987061,779.973083 2036.856934,782.600037 2046.328247,784.264282 
	C2065.167480,787.574524 2084.145508,786.612000 2103.067383,785.415649 
	C2109.822510,784.988525 2115.017578,780.843933 2117.299316,774.398926 
	C2119.391357,768.490601 2121.084229,762.314148 2121.937012,756.116028 
	C2125.598877,729.502441 2128.713867,702.813354 2132.403809,676.203979 
	C2133.674316,667.042664 2135.720703,657.951599 2138.015381,648.982544 
	C2139.588623,642.833435 2144.260742,639.532410 2150.685303,639.715576 
	C2171.282227,640.302795 2191.895996,640.712280 2212.457520,641.953369 
	C2222.555176,642.562927 2223.984375,644.622559 2225.805664,654.660889 
	C2229.361572,674.258179 2232.451172,693.946411 2236.362549,713.471008 
	C2239.948730,731.370422 2244.352051,749.106445 2248.417236,766.909424 
	C2250.409912,775.635803 2255.775635,780.262573 2264.721191,781.938293 
	C2279.807373,784.764282 2294.923096,786.690857 2310.271973,786.214294 
	C2314.786865,786.074097 2319.684570,786.586243 2323.648682,782.181030 
	C2323.648682,778.143433 2324.127441,773.776489 2323.570068,769.546021 
	C2320.320068,744.877319 2317.447266,720.135620 2313.290283,695.614685 
	C2303.970459,640.640930 2294.736084,585.632874 2284.038818,530.917969 
	C2272.823975,473.555450 2260.082275,416.488342 2247.671387,359.365265 
	C2245.067139,347.379120 2241.044434,335.697479 2237.583496,323.902496 
	C2235.762451,317.696014 2232.053223,313.360199 2225.234863,312.536346 
	C2218.648926,311.740570 2212.043945,310.293121 2205.465820,310.388611 
	C2182.541260,310.721100 2159.613525,311.359222 2136.711426,312.413757 
	C2129.825195,312.730865 2123.000977,314.695892 2116.181641,316.070496 
	C2111.422607,317.029816 2109.010986,320.029114 2108.156982,324.935547 
	C2104.114990,348.155731 2099.837158,371.334900 2095.402344,396.242676 
M3144.249756,547.597839 
	C3140.419189,572.291870 3139.150146,597.151306 3139.703369,622.103943 
	C3140.241211,646.362244 3140.366455,670.657288 3141.945801,694.853088 
	C3142.736328,706.963501 3144.627930,719.574402 3149.048828,730.762878 
	C3160.170410,758.911011 3175.573730,782.991516 3210.528564,785.436035 
	C3233.246826,787.024719 3254.796631,786.270630 3274.374512,772.408386 
	C3293.406738,758.932129 3292.080078,762.737366 3304.868896,775.480652 
	C3309.977539,780.571289 3315.597656,785.099731 3322.787354,785.340881 
	C3333.364746,785.695740 3343.985107,784.740906 3354.588379,784.379578 
	C3363.895752,784.062439 3368.367188,778.182922 3369.920166,770.026917 
	C3371.651611,760.934875 3373.205811,751.696228 3373.547607,742.473511 
	C3374.594238,714.237793 3375.446533,685.981018 3375.570068,657.728882 
	C3375.686279,631.130859 3374.868408,604.526550 3374.299561,577.928467 
	C3373.752441,552.338623 3373.194824,526.746216 3372.282959,501.167725 
	C3371.158936,469.645813 3369.881836,438.125854 3368.255371,406.626495 
	C3367.075195,383.766296 3365.391846,360.927155 3363.561035,338.108459 
	C3363.007080,331.202362 3361.204102,324.397186 3359.987549,317.543274 
	C3359.397949,314.221161 3357.686523,312.333374 3354.112549,311.868317 
	C3340.237549,310.062836 3326.405518,309.217041 3312.486084,311.623322 
	C3305.344238,312.857971 3300.900391,316.697632 3299.806396,323.754517 
	C3298.387451,332.904327 3296.729004,342.107391 3296.452393,351.325897 
	C3295.793701,373.285889 3296.206787,395.278229 3295.535889,417.237610 
	C3295.213623,427.792847 3293.606445,438.327637 3292.236816,448.826752 
	C3290.931396,458.834747 3284.505371,463.908813 3274.867676,465.105042 
	C3266.644775,466.125641 3258.392822,467.012360 3250.127930,467.577820 
	C3233.176514,468.737671 3216.400146,471.088013 3200.213867,476.242493 
	C3180.904053,482.391785 3164.387695,492.924774 3155.700195,511.970093 
	C3150.786133,522.742981 3148.149170,534.554260 3144.249756,547.597839 
M1489.692139,559.001709 
	C1488.800903,536.104492 1487.908325,513.207336 1487.022461,490.309875 
	C1486.973022,489.032196 1486.432739,487.280518 1487.057129,486.555115 
	C1489.762695,483.411591 1491.133545,479.755249 1488.206665,476.724792 
	C1485.869263,474.304749 1482.235596,472.472321 1478.893433,471.808777 
	C1467.848999,469.616028 1456.730469,467.313202 1445.535522,466.505646 
	C1435.675659,465.794342 1425.548096,466.184052 1415.772339,467.647980 
	C1405.984863,469.113678 1405.357178,471.059174 1406.176514,481.077301 
	C1406.284546,482.397644 1406.189697,483.736237 1406.161377,485.065796 
	C1405.545044,513.991211 1404.671631,542.913879 1404.375488,571.842590 
	C1404.065063,602.158875 1404.514404,632.482910 1404.208130,662.799316 
	C1404.084351,675.059753 1402.985474,687.320190 1402.044189,699.558594 
	C1401.548340,706.005798 1398.384155,710.452393 1391.896362,712.959534 
	C1385.096436,715.587219 1378.395630,718.824585 1372.285034,722.775269 
	C1367.083862,726.137939 1361.668091,727.993958 1355.748779,729.120789 
	C1345.075073,731.152832 1342.105347,729.578430 1338.560425,719.398560 
	C1338.023315,717.856384 1337.817871,716.166992 1337.668213,714.526611 
	C1336.524780,701.989136 1334.585938,689.454712 1334.470215,676.904846 
	C1333.932007,618.613892 1333.965454,560.317810 1333.613037,502.024689 
	C1333.569092,494.759857 1332.441650,487.501923 1331.823486,480.240173 
	C1331.351685,474.697449 1328.332642,472.115845 1322.792114,471.567841 
	C1314.898438,470.787048 1306.848267,470.279755 1299.237549,468.255280 
	C1288.050415,465.279572 1276.816895,464.913696 1265.573730,466.083984 
	C1252.945557,467.398438 1246.851074,470.771698 1246.239380,486.395172 
	C1245.511475,504.985229 1244.378906,523.582336 1244.413696,542.174561 
	C1244.485107,580.437134 1245.096680,618.700500 1245.752808,656.958984 
	C1245.934570,667.560852 1246.907349,678.158813 1247.794800,688.735291 
	C1248.374146,695.637329 1249.889160,702.475647 1250.231079,709.379883 
	C1251.419434,733.367371 1259.413086,754.343262 1277.889404,770.191711 
	C1289.643921,780.274292 1302.539917,788.599487 1319.468628,784.450928 
	C1321.038696,784.066162 1322.874634,784.042664 1324.432739,784.446777 
	C1337.090698,787.730652 1349.561523,784.034668 1362.023804,783.074158 
	C1368.360352,782.585754 1374.675537,779.245911 1380.579590,776.340088 
	C1389.162109,772.116028 1397.364380,767.119507 1406.958984,761.765808 
	C1411.706299,766.784058 1416.947144,771.774719 1421.516968,777.318604 
	C1425.603149,782.275757 1430.647827,785.198669 1436.779053,785.504578 
	C1445.418091,785.935669 1454.144409,786.146790 1462.747681,785.427002 
	C1477.466187,784.195557 1481.716797,780.129333 1484.081909,765.293701 
	C1485.748169,754.841553 1487.260132,744.267090 1487.553589,733.711548 
	C1488.571045,697.140259 1489.156494,660.555115 1489.643066,623.971680 
	C1489.922241,602.984985 1489.692627,581.991516 1489.692139,559.001709 
M2990.736572,471.274078 
	C2972.770752,479.649902 2954.805176,488.025757 2936.483643,496.567444 
	C2932.838135,491.758087 2929.522217,487.249146 2926.065186,482.851288 
	C2918.767334,473.566772 2909.415527,466.942291 2897.610840,466.102234 
	C2888.114502,465.426483 2878.459229,467.055542 2868.870605,467.591766 
	C2862.552979,467.945007 2860.275146,471.966217 2859.842529,477.515808 
	C2859.042969,487.772705 2857.794434,498.039764 2857.771729,508.304871 
	C2857.598145,586.298035 2857.588379,664.291992 2857.776123,742.285156 
	C2857.802246,753.208252 2859.163330,764.129456 2859.943848,775.048828 
	C2860.336182,780.536072 2863.329590,783.763489 2868.814453,783.967285 
	C2886.080566,784.608948 2903.360352,785.577148 2920.622314,785.366516 
	C2931.044678,785.239441 2936.234375,780.131104 2938.113770,769.614258 
	C2939.858887,759.848938 2941.393799,749.905884 2941.538818,740.019409 
	C2942.115234,700.710449 2941.946289,661.391113 2942.397705,622.079529 
	C2942.604004,604.141846 2943.478760,586.207092 2944.337158,568.284790 
	C2944.573242,563.348633 2945.549072,558.390808 2946.715088,553.571106 
	C2948.083496,547.912903 2951.200439,543.389771 2956.366943,540.191711 
	C2967.257568,533.450195 2979.066406,529.051575 2991.496582,526.505371 
	C3000.788086,524.602112 3005.406006,527.959961 3006.162598,537.776917 
	C3008.304443,565.555298 3010.752441,593.354919 3011.468018,621.187622 
	C3012.495605,661.149231 3011.958496,701.148987 3012.416748,741.128784 
	C3012.519287,750.047546 3013.340332,759.070374 3014.974121,767.832092 
	C3017.262695,780.107117 3022.799072,784.938049 3035.403076,785.598022 
	C3049.361084,786.328796 3063.382568,786.455994 3077.356201,786.085327 
	C3087.966064,785.803894 3091.956787,781.817688 3094.298096,771.244080 
	C3095.155518,767.371155 3096.023682,763.424683 3096.176758,759.484253 
	C3097.015381,737.896179 3098.081543,716.302429 3098.221191,694.705200 
	C3098.423584,663.390625 3098.341797,632.060059 3097.538330,600.757935 
	C3096.976074,578.869629 3095.539307,556.967834 3093.510254,535.163574 
	C3091.558105,514.184631 3083.095459,496.248260 3065.773438,483.065094 
	C3052.078369,472.642487 3036.710449,466.684143 3019.706055,466.532654 
	C3010.556641,466.451111 3001.382324,469.163757 2990.736572,471.274078 
M1983.485107,710.121521 
	C1986.364502,696.472290 1987.884521,682.826538 1988.009888,668.726013 
	C1988.335327,632.124756 1989.059082,595.550232 1985.641846,559.051697 
	C1984.022827,541.759521 1980.195312,525.064392 1972.520264,509.252197 
	C1963.653320,490.984406 1949.759399,478.937317 1930.073486,474.589111 
	C1912.319092,470.667572 1894.640259,465.750549 1876.151489,466.196838 
	C1850.619385,466.813141 1825.419800,467.753296 1801.102417,477.961884 
	C1779.022217,487.231293 1764.751465,502.626221 1758.785645,525.049561 
	C1754.453735,541.331604 1751.496094,558.190308 1750.044189,574.975098 
	C1748.156250,596.799866 1748.056519,618.802124 1747.758667,640.735657 
	C1747.419434,665.718079 1749.292847,690.649597 1755.866089,714.787781 
	C1765.315308,749.486633 1787.440918,772.408386 1822.365723,782.606506 
	C1831.065186,785.146790 1839.813110,785.242737 1848.698975,785.420837 
	C1870.654907,785.860657 1892.656738,786.593567 1914.418457,783.288818 
	C1922.800049,782.016052 1931.672485,779.735657 1938.815186,775.421082 
	C1954.089111,766.194885 1966.470703,753.429749 1974.157227,737.062073 
	C1977.943481,728.999695 1980.077148,720.161194 1983.485107,710.121521 
M3427.675781,616.419678 
	C3427.359375,620.368591 3426.637695,624.333557 3426.793945,628.263672 
	C3427.636475,649.478271 3428.424561,670.701294 3429.755615,691.888489 
	C3431.253174,715.725586 3438.858154,737.371460 3454.658691,755.696777 
	C3467.016357,770.028992 3482.102051,779.961426 3501.176025,782.244568 
	C3515.306152,783.935852 3529.559082,785.367493 3543.767578,785.467651 
	C3569.021973,785.645752 3594.294678,785.021484 3619.537598,784.115479 
	C3629.080078,783.772949 3638.612549,782.012207 3648.054932,780.358704 
	C3656.292236,778.916260 3660.872314,773.187622 3661.444824,765.142334 
	C3662.080078,756.217102 3661.814453,747.213684 3661.644287,738.249939 
	C3661.519287,731.651123 3657.655029,727.975830 3651.327393,726.794006 
	C3648.715332,726.306152 3646.064209,725.694946 3643.432129,725.701782 
	C3625.790527,725.747498 3608.149902,726.053162 3590.508789,726.061951 
	C3572.869141,726.070740 3555.215576,726.207703 3537.594482,725.566589 
	C3526.221924,725.152832 3520.472900,720.351868 3518.315674,709.098328 
	C3515.327637,693.513611 3512.907959,677.782288 3515.555420,661.753174 
	C3517.702393,648.752869 3520.625732,645.420532 3533.837646,644.258911 
	C3545.065430,643.271912 3556.341797,642.588379 3567.608887,642.354675 
	C3582.923828,642.037048 3598.261719,642.630676 3613.567383,642.136475 
	C3622.128662,641.860046 3630.675537,640.375488 3639.171387,639.062683 
	C3646.335205,637.955627 3649.893066,632.885437 3651.339844,626.228760 
	C3651.971436,623.322815 3652.249023,620.290039 3652.275391,617.311157 
	C3652.379883,605.431152 3652.298584,593.549561 3652.331055,581.668701 
	C3652.382324,562.911804 3648.917236,544.666321 3643.988525,526.692871 
	C3640.440186,513.752502 3634.902100,501.842560 3625.471191,491.827637 
	C3609.400879,474.762299 3588.754150,468.549957 3566.479736,466.324829 
	C3544.513428,464.130463 3522.672607,466.128479 3501.030762,470.080353 
	C3482.627197,473.440857 3465.906494,480.457733 3453.495117,495.100281 
	C3442.936523,507.556915 3437.120605,522.392700 3433.873047,538.238464 
	C3428.713379,563.410767 3427.327148,588.910828 3427.675781,616.419678 
M2578.312744,557.668335 
	C2577.433350,572.584595 2575.712646,587.508606 2575.849854,602.415527 
	C2576.138184,633.668762 2577.411133,664.912842 2578.264893,696.161011 
	C2578.779785,715.009949 2584.846680,732.040649 2595.611572,747.340271 
	C2609.154785,766.588928 2626.449463,780.234680 2650.879883,782.463257 
	C2663.089355,783.577026 2675.311035,785.505005 2687.521729,785.461914 
	C2716.454102,785.359680 2745.387451,784.443909 2774.309326,783.513367 
	C2780.548340,783.312622 2786.731689,781.600647 2792.957275,780.699036 
	C2800.142334,779.658386 2804.702637,775.412720 2805.553955,768.496399 
	C2806.765869,758.648560 2807.518311,748.672607 2807.431396,738.760498 
	C2807.369385,731.717102 2803.382812,727.663269 2796.471191,726.505676 
	C2789.294922,725.303650 2781.970703,724.412781 2774.710693,724.411194 
	C2761.768555,724.408386 2748.829102,725.387085 2735.883301,725.570251 
	C2719.915283,725.796204 2703.916260,726.195923 2687.977783,725.475342 
	C2671.389648,724.725403 2665.444824,718.591187 2663.781982,702.260315 
	C2662.606689,690.718689 2662.263184,679.087708 2660.935791,667.567261 
	C2658.970459,650.509827 2665.104004,644.675781 2679.733154,644.139648 
	C2699.329346,643.421387 2718.937256,643.015442 2738.530518,642.235352 
	C2753.792969,641.627686 2769.060059,640.915283 2784.288330,639.761597 
	C2797.208252,638.782776 2800.416748,635.704407 2800.189453,623.211548 
	C2799.790283,601.283142 2799.482910,579.286804 2797.429199,557.479797 
	C2796.199463,544.421143 2793.128662,531.132629 2788.451904,518.875916 
	C2773.309570,479.192963 2750.526855,470.115753 2719.448486,468.566101 
	C2696.945557,467.444061 2674.158936,467.732330 2651.754150,469.960999 
	C2621.318359,472.988495 2598.790527,489.029053 2587.860840,518.312683 
	C2583.372559,530.338928 2581.472412,543.331116 2578.312744,557.668335 
M2533.883789,523.623169 
	C2535.185791,523.376404 2536.505615,523.199036 2537.787109,522.871887 
	C2547.376953,520.423767 2548.695312,519.042297 2549.638428,509.645142 
	C2550.069580,505.348999 2550.287598,501.013763 2550.293945,496.695801 
	C2550.321289,478.282837 2542.691895,476.688538 2529.636475,474.296814 
	C2528.668457,474.119476 2527.641846,474.272552 2526.642822,474.252258 
	C2516.330078,474.042847 2506.018066,473.699371 2495.704590,473.662537 
	C2488.806152,473.637909 2484.366699,470.416809 2482.037109,464.131042 
	C2481.117676,461.650024 2480.402344,459.064880 2479.880859,456.469574 
	C2477.005371,442.159729 2474.765869,427.696075 2471.250244,413.548035 
	C2467.569824,398.736298 2457.346680,394.259766 2444.076172,400.993927 
	C2440.963135,402.573639 2438.116943,405.339478 2436.065918,408.214417 
	C2431.828125,414.154419 2427.953125,420.392517 2424.387451,426.764404 
	C2417.086182,439.810547 2410.140137,453.055054 2402.942383,466.159912 
	C2399.018311,473.304749 2392.577637,477.296997 2384.941895,479.362762 
	C2377.895508,481.269226 2370.723877,482.708740 2363.648193,484.513092 
	C2346.026855,489.006561 2345.352051,489.951874 2345.675049,508.364929 
	C2345.890625,520.664429 2347.674561,522.564575 2360.050293,523.667419 
	C2367.636963,524.343506 2375.234863,524.914368 2382.807617,525.721191 
	C2389.242920,526.406860 2392.955078,530.199524 2394.240234,536.486145 
	C2394.836426,539.402283 2395.892822,542.279175 2396.076416,545.215393 
	C2396.946045,559.124878 2398.028564,573.042542 2398.226562,586.968750 
	C2398.832275,629.542236 2397.046875,672.152771 2400.312744,714.683716 
	C2400.515137,717.320068 2400.696045,719.966919 2401.090088,722.578186 
	C2404.629639,746.035217 2417.030029,765.238586 2430.517090,783.945435 
	C2436.833984,792.707275 2445.792236,796.311279 2456.023438,797.515198 
	C2459.980957,797.980896 2464.028076,798.503296 2467.962402,798.163818 
	C2474.711914,797.581482 2482.057129,799.102051 2487.900146,793.693420 
	C2488.044434,791.640015 2488.353027,789.654785 2488.296875,787.679871 
	C2487.672852,765.758545 2486.768311,743.842834 2486.373291,721.917786 
	C2485.551758,676.347290 2484.981934,630.772278 2484.337646,585.198608 
	C2484.248291,578.870789 2484.054688,572.526062 2484.393555,566.215149 
	C2484.820068,558.274902 2485.313232,550.292603 2486.562012,542.453308 
	C2488.213379,532.088196 2492.957031,527.224426 2503.339355,525.794983 
	C2512.840576,524.486938 2522.498291,524.317261 2533.883789,523.623169 
M1573.635986,585.704651 
	C1573.859985,625.658386 1574.204712,665.612000 1574.247681,705.565918 
	C1574.264526,721.168823 1577.692505,735.803162 1584.601440,749.729614 
	C1589.763794,760.135437 1594.600952,770.706055 1599.932251,781.022705 
	C1601.561035,784.174500 1603.988770,787.138550 1606.668091,789.482971 
	C1617.578369,799.029602 1648.330444,801.697327 1662.797974,794.587463 
	C1663.942749,794.024902 1664.933594,793.149170 1665.909790,792.478271 
	C1665.909790,788.171753 1666.592896,784.067017 1665.801147,780.269714 
	C1659.879272,751.868408 1657.849976,723.118896 1657.720093,694.198853 
	C1657.590088,665.222900 1657.446777,636.243164 1657.779297,607.270508 
	C1657.992798,588.682373 1658.758179,570.087036 1659.818237,551.525940 
	C1661.042358,530.093750 1666.022949,525.995117 1687.318970,525.503967 
	C1696.531616,525.291443 1705.704590,523.473328 1714.902466,522.446167 
	C1719.966187,521.880615 1723.114746,518.566101 1723.643066,514.139221 
	C1724.573242,506.344788 1725.430542,498.277496 1724.413818,490.575928 
	C1722.836426,478.629028 1721.182983,477.348053 1709.424316,475.750061 
	C1697.622559,474.146210 1685.722900,473.166840 1673.838135,472.296021 
	C1661.049683,471.358948 1656.694702,467.929718 1654.046387,455.528778 
	C1653.145752,451.311676 1652.583008,447.022003 1651.669556,442.808044 
	C1649.209106,431.458740 1646.730957,420.111664 1644.079590,408.806000 
	C1642.874268,403.667053 1640.187378,398.925690 1634.523071,398.567169 
	C1624.775269,397.950104 1614.623657,397.413361 1609.127686,408.374725 
	C1608.237305,410.150421 1606.892090,411.699310 1606.014771,413.480042 
	C1599.135132,427.444244 1591.792725,441.212372 1585.626465,455.487305 
	C1579.180176,470.410278 1568.225342,478.161102 1552.517456,480.757935 
	C1545.033203,481.995209 1537.780884,484.689667 1530.461792,486.854095 
	C1523.072998,489.039154 1519.929810,494.327820 1519.671021,501.800659 
	C1519.534180,505.750244 1518.826904,509.677673 1518.622070,513.627808 
	C1518.292725,519.983032 1520.732666,523.489319 1527.342041,524.240845 
	C1535.883057,525.211975 1544.531006,525.264832 1553.135742,525.646179 
	C1563.557861,526.108032 1568.463013,529.918213 1569.977173,540.261841 
	C1571.270752,549.098999 1571.599609,558.079407 1572.295776,567.001038 
	C1572.733276,572.607971 1573.061035,578.223389 1573.635986,585.704651 
z"/>
<path fill="#02A1FF" opacity="1.000000" stroke="none" 
	d="
M731.043884,616.196167 
	C750.232666,616.711304 768.512207,617.172607 786.790710,617.672791 
	C788.449768,617.718201 790.100281,618.031067 791.757629,618.190063 
	C807.306763,619.682556 810.376465,622.177246 811.473572,637.355347 
	C812.262634,648.271667 811.681946,659.288696 811.650269,670.260620 
	C811.646484,671.564209 811.392578,672.909363 811.012939,674.161926 
	C809.691345,678.522644 809.341003,683.694519 803.191711,684.349670 
	C797.324951,684.974792 791.258850,684.593567 788.190308,679.034729 
	C785.384338,673.951538 783.738159,668.080933 782.409668,662.364685 
	C780.550842,654.366577 779.796753,652.699768 771.441162,652.334961 
	C759.821228,651.827759 748.140259,651.830872 736.525146,652.410828 
	C728.501099,652.811401 726.356445,655.116760 725.765198,663.542297 
	C724.719788,678.439026 723.998047,693.377808 723.775391,708.308411 
	C723.452393,729.968445 723.867126,751.638855 723.627258,773.301025 
	C723.487549,785.915955 722.933899,798.539917 722.112122,811.130066 
	C721.235718,824.557190 718.060120,831.519775 699.306091,832.234619 
	C692.316772,832.500977 685.299744,832.056702 678.311707,832.340210 
	C668.451721,832.740112 666.081543,834.935608 665.779297,844.934937 
	C665.420288,856.814697 665.506836,868.719360 665.800537,880.603333 
	C665.987061,888.152771 667.437378,889.555481 675.127808,890.958069 
	C678.368774,891.549133 681.739441,891.432129 685.051697,891.628296 
	C693.831848,892.148315 697.980164,896.558533 698.318970,905.740356 
	C698.660645,915.000916 695.757019,919.296570 686.747986,919.754150 
	C673.192688,920.442566 659.563110,920.506104 646.002869,919.936340 
	C638.270142,919.611328 631.398682,908.519409 631.331970,900.494873 
	C631.177490,881.900879 630.280945,863.312744 629.646790,844.723572 
	C629.613586,843.749390 629.231506,842.785217 628.997009,841.820007 
	C627.071167,833.892822 624.298096,831.944153 615.434631,832.283203 
	C607.407959,832.590271 604.549561,834.877991 603.770081,842.732483 
	C602.820190,852.303101 601.943848,861.915527 601.781982,871.522461 
	C601.473206,889.848999 602.048584,908.194214 601.550964,926.512451 
	C601.282410,936.399963 600.050964,946.335327 598.333313,956.086914 
	C596.855042,964.479614 594.797363,966.070984 589.615967,966.255920 
	C583.218628,966.484192 575.258423,961.705811 574.264404,955.826477 
	C572.831787,947.352112 571.948059,938.704529 571.783630,930.112610 
	C571.426514,911.454346 571.841248,892.782410 571.603699,874.120300 
	C571.481323,864.505005 570.800293,854.886108 570.045166,845.294495 
	C569.711548,841.057617 569.482117,835.165161 564.714294,834.483215 
	C558.755615,833.630920 552.269287,834.723511 546.376953,836.324463 
	C544.816040,836.748657 544.020142,842.092163 543.865051,845.226074 
	C543.158875,859.494324 543.019409,873.791626 542.241028,888.054810 
	C541.826660,895.647034 541.102722,903.317993 539.469849,910.722168 
	C537.724304,918.637207 535.054504,919.238525 526.233521,919.089722 
	C515.309448,918.905334 504.366058,920.129883 493.432678,920.101501 
	C489.321320,920.090820 484.649078,919.198792 481.219208,917.097778 
	C473.159973,912.160767 472.634583,902.728271 480.410767,897.368286 
	C485.429504,893.908875 491.711792,891.268677 497.717621,890.486450 
	C507.383179,889.227478 509.622314,885.406738 510.211304,876.829834 
	C510.916199,866.565247 511.507141,856.273926 511.576141,845.990417 
	C511.633789,837.389771 509.245758,834.297546 500.519989,833.845764 
	C487.008698,833.146240 473.430115,833.478699 459.887939,833.756287 
	C452.998535,833.897522 448.797333,837.992371 447.641785,844.752014 
	C446.750702,849.964600 446.108917,855.241882 445.740753,860.517273 
	C444.931793,872.109192 444.484253,883.726746 443.631500,895.314941 
	C443.366302,898.918945 442.616821,902.575623 441.484009,906.008545 
	C439.372650,912.407043 435.106232,916.833923 428.308777,918.388916 
	C426.050110,918.905579 423.790833,919.638184 421.502686,919.771423 
	C409.240967,920.485718 396.972595,921.449585 384.701508,921.526794 
	C374.434753,921.591431 364.161255,920.550720 353.890167,920.011292 
	C351.898743,919.906799 349.902039,919.752319 347.911926,919.798889 
	C336.054749,920.075989 328.375854,912.347778 328.031799,900.339417 
	C327.670441,887.729553 326.795288,875.135071 326.259491,862.528992 
	C326.075012,858.189148 324.666351,854.847839 320.417450,853.057617 
	C310.311951,848.799744 300.377350,844.081848 290.084747,840.345764 
	C285.078735,838.528748 279.600983,838.920288 275.123138,843.117249 
	C270.040070,847.881409 264.734924,852.409607 259.500122,857.010620 
	C254.260071,861.616333 249.278702,866.586060 243.655457,870.668274 
	C236.710617,875.710083 234.523483,875.517212 227.706345,870.054993 
	C220.447830,864.239014 213.306107,858.234253 206.524979,851.873169 
	C179.829758,826.831726 153.689850,801.231384 129.945007,773.312134 
	C126.724365,769.525269 123.872192,765.425049 120.753250,761.344116 
	C122.646767,753.299927 128.396118,748.005615 133.238510,742.267395 
	C138.167831,736.426147 143.665024,731.061462 148.956802,725.529480 
	C155.473450,718.717041 158.257278,711.627563 153.456635,702.216919 
	C149.552017,694.562744 146.967773,686.198669 144.195328,678.014771 
	C141.975815,671.463135 137.631516,668.226013 130.907104,668.061462 
	C124.254349,667.898621 117.596603,667.868958 110.941505,667.895752 
	C105.618149,667.917114 100.281883,668.407166 94.975426,668.163940 
	C85.032097,667.708252 80.377136,664.023315 77.885155,654.520386 
	C76.714867,650.057617 75.898682,645.387756 75.763573,640.787048 
	C75.119370,618.851929 74.442406,596.908875 74.406715,574.967590 
	C74.377518,557.023743 75.212761,539.077881 75.725609,521.134644 
	C75.801529,518.478333 76.034599,515.799988 76.499710,513.186035 
	C78.663445,501.025635 83.291618,496.619659 95.745262,495.675293 
	C105.995331,494.898010 116.292526,494.301697 126.563515,494.374634 
	C135.480225,494.437958 141.146301,490.412598 144.344589,482.566895 
	C147.730301,474.261414 150.569153,465.731659 154.005020,457.448425 
	C156.808655,450.689392 154.932281,445.054993 150.512833,440.014435 
	C143.719589,432.266479 136.483047,424.901062 129.830139,417.038666 
	C126.221367,412.773743 123.430962,407.816345 119.843437,402.542175 
	C124.555328,396.484436 128.509109,390.258423 133.559174,385.107056 
	C155.224701,363.007111 177.253174,341.263519 199.058838,319.300140 
	C205.593964,312.717712 211.775131,305.785126 218.241486,299.132568 
	C220.767380,296.533936 223.384766,293.887085 226.390503,291.918915 
	C233.959167,286.962860 236.980194,287.182343 244.047333,293.117981 
	C251.170929,299.101074 258.581177,304.876190 264.917999,311.631561 
	C274.500671,321.847168 284.953064,325.049194 298.034210,319.205994 
	C303.474762,316.775726 309.214294,314.924744 314.948456,313.260437 
	C327.044525,309.749664 331.728088,301.358490 331.712891,289.366760 
	C331.701935,280.712982 332.024811,272.056885 332.317505,263.405853 
	C332.395325,261.105988 332.726654,258.777344 333.257263,256.536713 
	C335.423920,247.387802 337.147583,245.637650 346.522766,244.354187 
	C353.745361,243.365417 361.050354,242.308929 368.308136,242.379166 
	C386.252289,242.552795 404.190796,243.343750 422.130371,243.923691 
	C424.122742,243.988113 426.135864,244.141357 428.090668,244.510956 
	C436.588745,246.117630 438.792847,248.179352 439.722046,256.816223 
	C440.679291,265.713837 441.147400,274.668457 441.663055,283.607697 
	C442.027161,289.919495 441.886810,296.264862 442.375427,302.563934 
	C443.178253,312.913971 447.029236,316.772034 457.337189,317.529663 
	C462.310547,317.895203 467.343109,317.831146 472.328491,317.570831 
	C480.276550,317.155884 488.244537,316.712311 496.136261,315.733978 
	C505.488922,314.574524 509.431885,310.900848 510.160187,301.816101 
	C511.114197,289.915375 511.515717,277.948608 511.590302,266.006714 
	C511.640442,257.978333 509.675659,256.296448 501.396912,255.798462 
	C497.091248,255.539444 492.748322,255.923035 488.421753,255.983017 
	C479.126678,256.111847 474.563507,252.319260 474.325104,244.297592 
	C474.066528,235.598740 478.625946,230.489578 487.394470,230.302444 
	C501.691620,229.997330 515.994995,229.943695 530.296143,229.880463 
	C536.417542,229.853394 538.624939,231.333466 539.893738,237.714798 
	C541.182312,244.195450 541.947266,250.840607 542.247375,257.445251 
	C542.956299,273.045807 543.053223,288.675232 543.846375,304.270142 
	C544.064636,308.559937 542.686279,314.254486 548.532532,316.324219 
	C554.939453,318.592438 561.649414,319.138519 567.865112,315.888458 
	C569.482849,315.042542 570.608337,312.197327 570.918030,310.115387 
	C571.697571,304.874878 572.254517,299.544983 572.241028,294.252594 
	C572.185913,272.601410 571.691956,250.949997 571.788696,229.300568 
	C571.818115,222.716934 572.758911,216.039795 574.134460,209.587158 
	C575.515564,203.108307 579.544800,200.497757 585.481506,200.830978 
	C594.935059,201.361588 596.719421,202.507843 598.270264,210.055206 
	C599.202393,214.591553 599.960022,219.221588 600.171265,223.838104 
	C601.022095,242.431107 601.450989,261.044434 602.404785,279.631287 
	C602.862549,288.553375 603.653259,297.519073 605.193359,306.307281 
	C606.625549,314.479584 620.787842,320.718079 628.101501,316.819763 
	C632.363525,314.548035 633.465149,310.283020 633.705627,305.795837 
	C634.381165,293.194305 634.930298,280.585266 635.705627,267.990051 
	C636.194519,260.049194 636.539734,252.054611 637.786255,244.217255 
	C639.170532,235.514328 641.920410,232.642242 650.807190,231.823685 
	C662.689087,230.729279 674.674500,230.496918 686.617310,230.457047 
	C691.309387,230.441376 695.942627,232.187515 697.559082,237.516586 
	C699.105469,242.614761 698.294067,247.358643 694.879272,251.621399 
	C690.284546,257.357117 683.534119,258.231262 677.053406,259.501831 
	C666.964600,261.479736 665.911926,262.296967 665.742920,272.153381 
	C665.556335,283.035431 665.436279,293.931641 665.785950,304.805664 
	C666.054443,313.154724 668.956238,317.235931 676.846130,317.424591 
	C688.271606,317.697815 699.506714,322.362030 711.200073,318.788788 
	C712.952515,318.253326 716.940186,320.872681 717.955566,322.970764 
	C719.932190,327.054810 721.123962,331.743530 721.587646,336.289246 
	C722.631104,346.517426 723.491272,356.805817 723.611206,367.079224 
	C724.035034,403.394226 724.077271,439.713593 724.382629,476.030304 
	C724.415833,479.975800 725.080994,483.936462 725.695007,487.852112 
	C726.740479,494.518707 729.160400,497.780518 735.836731,497.768768 
	C749.418396,497.744843 763.005310,496.699860 776.574463,495.831696 
	C781.126160,495.540527 783.593262,492.606964 784.311890,488.053070 
	C785.239258,482.176422 785.939514,476.209503 787.542175,470.507568 
	C789.560242,463.327515 791.603760,462.110443 797.999329,462.262421 
	C804.768616,462.423309 809.203491,465.177094 810.458557,471.248566 
	C813.805481,487.439667 812.927917,503.635956 809.208618,519.671021 
	C808.325134,523.479797 805.777893,526.042786 801.556824,526.494141 
	C792.015625,527.514404 782.503662,529.065369 772.937500,529.529785 
	C760.966736,530.110901 748.938416,529.476685 736.963135,530.005554 
	C726.165222,530.482422 724.394897,532.731934 724.207092,543.393433 
	C724.144104,546.969543 724.197083,550.547668 724.197083,555.092468 
	C733.804382,556.006042 742.283569,557.290100 750.791748,557.524048 
	C769.768066,558.045715 788.762756,557.876343 807.741638,558.335999 
	C815.354187,558.520325 822.972595,559.398438 830.536987,560.363831 
	C837.684448,561.275940 841.376648,565.678955 841.318176,572.371704 
	C841.240845,581.218079 838.370056,584.900879 830.001343,585.548523 
	C817.756470,586.496216 805.480103,587.085388 793.208191,587.622681 
	C774.951965,588.422180 756.672791,588.778748 738.432068,589.825317 
	C724.361938,590.632629 719.887207,598.437805 725.632629,611.414490 
	C726.463257,613.290649 728.601318,614.587891 731.043884,616.196167 
M647.263733,348.269318 
	C641.666748,347.662933 636.059204,346.462463 630.474854,346.562408 
	C614.206482,346.853546 597.950928,348.035461 581.683899,348.191284 
	C552.027039,348.475342 522.363647,348.077881 492.706757,348.361603 
	C479.769012,348.485352 466.834839,349.496765 453.912048,350.311157 
	C450.714752,350.512665 447.568085,351.517883 444.411346,352.151001 
	C443.693451,367.373596 442.576141,381.926788 442.403809,396.491180 
	C441.946655,435.129517 441.540161,473.774841 441.769501,512.413452 
	C442.119263,571.334595 442.920288,630.253906 443.764069,689.170593 
	C443.958893,702.775635 444.338593,716.463440 446.039307,729.935730 
	C447.526825,741.719360 450.208618,753.498596 453.762421,764.841187 
	C459.266022,782.406860 471.751068,793.458679 489.779144,797.168945 
	C500.782867,799.433472 512.076355,801.210632 523.274597,801.430725 
	C552.896118,802.012817 582.550842,802.160950 612.162903,801.375183 
	C624.642456,801.044128 637.219727,798.679077 649.440491,795.877441 
	C662.341003,792.920044 671.937561,784.623657 677.987244,772.768738 
	C683.155396,762.641235 685.950439,751.762268 687.815674,740.523560 
	C693.227844,707.912476 692.938171,674.907471 693.307617,642.121460 
	C694.080444,573.543640 692.928162,504.940674 692.207825,436.351807 
	C692.009155,417.430023 690.794373,398.504700 689.514404,379.617004 
	C689.116150,373.740479 687.403320,367.838165 685.528625,362.201660 
	C682.156494,352.062958 677.194092,348.687653 666.165588,348.308960 
	C660.506897,348.114685 654.836121,348.272980 647.263733,348.269318 
M412.310303,651.000000 
	C412.099152,593.702759 412.011414,536.404541 411.599579,479.108765 
	C411.480316,462.512390 410.619843,445.912598 409.733307,429.333923 
	C409.255859,420.405121 408.678497,411.383911 406.944275,402.642822 
	C404.281586,389.221741 401.522125,387.442169 388.090332,387.679962 
	C385.110779,387.732697 382.102570,387.984222 379.168579,388.494934 
	C360.279480,391.783020 342.961304,399.259003 326.370605,408.594574 
	C302.111420,422.245239 280.486908,439.283722 261.692627,459.797058 
	C249.892014,472.677002 240.584122,487.289001 235.254990,503.992249 
	C226.070572,532.779358 215.935837,561.458862 218.336014,592.477417 
	C218.846558,599.075317 219.054825,605.775391 220.422974,612.211426 
	C223.103882,624.822876 225.950165,637.451782 229.737991,649.762695 
	C235.094879,667.173157 246.605850,681.338135 256.150269,696.500244 
	C260.385925,703.228943 264.162140,710.713989 269.896362,715.934021 
	C281.413055,726.418030 293.455475,736.627563 306.502075,745.061401 
	C329.592438,759.987671 355.734741,768.215271 382.125641,775.190918 
	C388.405487,776.850830 395.361542,776.073181 402.010345,776.178833 
	C407.503693,776.266174 410.585327,773.333862 411.148224,767.858887 
	C411.385468,765.551514 411.640411,763.232849 411.655884,760.917786 
	C411.896606,724.945312 412.099274,688.972656 412.310303,651.000000 
z"/>
<path fill="#02A1FF" opacity="1.000000" stroke="none" 
	d="
M1044.165771,309.982941 
	C1062.440186,309.848907 1079.754639,309.714050 1097.058350,310.082855 
	C1100.084839,310.147339 1103.458374,311.799591 1105.972778,313.662048 
	C1109.414795,316.211517 1112.422974,319.468231 1115.181396,322.784241 
	C1117.890869,326.041412 1119.009399,329.506653 1119.029663,334.371002 
	C1119.059082,341.425629 1122.407104,348.423859 1124.002319,355.521973 
	C1130.701172,385.329620 1137.318726,415.155762 1143.884399,444.993073 
	C1158.010986,509.189575 1169.957153,573.795166 1180.331909,638.700928 
	C1186.301758,676.050049 1192.793823,713.316650 1198.591675,750.691711 
	C1200.208008,761.110474 1200.188232,771.783081 1200.981567,783.239685 
	C1196.166748,784.176270 1192.382935,785.597229 1188.630249,785.519409 
	C1175.022949,785.237732 1161.412720,784.664429 1147.828979,783.800110 
	C1133.777344,782.905945 1124.994751,775.076355 1121.925415,761.564697 
	C1118.916138,748.316895 1116.660278,734.892395 1114.273560,721.509888 
	C1109.961792,697.333191 1105.757690,673.137024 1101.608887,648.931824 
	C1100.807861,644.258423 1097.739746,641.895447 1093.654785,641.082214 
	C1089.121582,640.179810 1084.430542,639.763916 1079.801392,639.708008 
	C1065.809448,639.539062 1051.811279,639.825562 1037.820679,639.605225 
	C1017.487793,639.285156 1014.895996,646.463867 1012.203369,661.768677 
	C1009.733215,675.809021 1008.156128,690.006042 1005.707642,704.050659 
	C1003.662048,715.783875 1000.839355,727.379761 998.549377,739.073364 
	C997.916504,742.305237 997.935120,745.667419 997.694153,748.972717 
	C997.212402,755.582031 996.836548,762.200012 996.272339,768.802063 
	C995.561218,777.123291 991.037842,782.351013 982.877869,784.010376 
	C978.026245,784.997070 973.036926,785.967896 968.127319,785.885315 
	C952.866089,785.628845 937.565613,785.418213 922.374268,784.103943 
	C912.355530,783.237244 909.752747,779.861084 910.468384,769.497925 
	C911.426453,755.624207 913.028931,741.752441 915.197021,728.012756 
	C922.647705,680.795593 930.349976,633.617188 938.178162,586.460876 
	C944.918701,545.856689 951.981689,505.306061 958.866455,464.725739 
	C965.250305,427.097656 971.531189,389.451996 977.989624,351.836761 
	C979.336853,343.990784 981.526489,336.288696 982.853516,328.440125 
	C984.390503,319.349701 990.365662,315.319855 998.622498,314.379089 
	C1013.450378,312.689697 1028.338867,311.532623 1044.165771,309.982941 
M1046.193359,437.298431 
	C1042.317383,460.535889 1038.302246,483.751251 1034.613403,507.018341 
	C1032.068237,523.071960 1029.670654,539.162170 1027.809082,555.305359 
	C1026.894165,563.238770 1028.510132,565.038086 1036.321899,565.511902 
	C1047.277954,566.176270 1058.299805,566.465942 1069.265503,566.092773 
	C1084.683838,565.568054 1086.127319,563.724121 1083.537109,548.810547 
	C1076.324707,507.281738 1068.969116,465.777405 1061.494263,424.295044 
	C1059.949463,415.721069 1057.644653,407.284058 1055.689941,398.783936 
	C1054.939087,398.797943 1054.188110,398.811920 1053.437256,398.825897 
	C1051.089111,411.077881 1048.740967,423.329865 1046.193359,437.298431 
z"/>
<path fill="#02A1FF" opacity="1.000000" stroke="none" 
	d="
M2095.522949,395.385681 
	C2099.837158,371.334900 2104.114990,348.155731 2108.156982,324.935547 
	C2109.010986,320.029114 2111.422607,317.029816 2116.181641,316.070496 
	C2123.000977,314.695892 2129.825195,312.730865 2136.711426,312.413757 
	C2159.613525,311.359222 2182.541260,310.721100 2205.465820,310.388611 
	C2212.043945,310.293121 2218.648926,311.740570 2225.234863,312.536346 
	C2232.053223,313.360199 2235.762451,317.696014 2237.583496,323.902496 
	C2241.044434,335.697479 2245.067139,347.379120 2247.671387,359.365265 
	C2260.082275,416.488342 2272.823975,473.555450 2284.038818,530.917969 
	C2294.736084,585.632874 2303.970459,640.640930 2313.290283,695.614685 
	C2317.447266,720.135620 2320.320068,744.877319 2323.570068,769.546021 
	C2324.127441,773.776489 2323.648682,778.143433 2323.648682,782.181030 
	C2319.684570,786.586243 2314.786865,786.074097 2310.271973,786.214294 
	C2294.923096,786.690857 2279.807373,784.764282 2264.721191,781.938293 
	C2255.775635,780.262573 2250.409912,775.635803 2248.417236,766.909424 
	C2244.352051,749.106445 2239.948730,731.370422 2236.362549,713.471008 
	C2232.451172,693.946411 2229.361572,674.258179 2225.805664,654.660889 
	C2223.984375,644.622559 2222.555176,642.562927 2212.457520,641.953369 
	C2191.895996,640.712280 2171.282227,640.302795 2150.685303,639.715576 
	C2144.260742,639.532410 2139.588623,642.833435 2138.015381,648.982544 
	C2135.720703,657.951599 2133.674316,667.042664 2132.403809,676.203979 
	C2128.713867,702.813354 2125.598877,729.502441 2121.937012,756.116028 
	C2121.084229,762.314148 2119.391357,768.490601 2117.299316,774.398926 
	C2115.017578,780.843933 2109.822510,784.988525 2103.067383,785.415649 
	C2084.145508,786.612000 2065.167480,787.574524 2046.328247,784.264282 
	C2036.856934,782.600037 2033.987061,779.973083 2034.030029,770.507690 
	C2034.075073,760.586914 2034.922974,750.579712 2036.453857,740.771667 
	C2042.289673,703.383911 2048.414062,666.039734 2054.675293,628.720337 
	C2060.881104,591.731750 2067.295166,554.777405 2073.776367,517.835815 
	C2080.890381,477.288177 2088.185791,436.772339 2095.522949,395.385681 
M2185.164795,427.960236 
	C2182.803223,416.736267 2180.441895,405.512299 2178.080322,394.288330 
	C2177.671143,394.390686 2177.261963,394.493011 2176.852783,394.595337 
	C2168.295654,451.106415 2159.738281,507.617493 2151.197998,564.014771 
	C2160.913330,566.214783 2193.932861,567.111633 2201.138916,565.649048 
	C2207.573486,564.343201 2208.844482,562.662903 2207.762695,555.999695 
	C2205.638184,542.915466 2203.428223,529.844055 2201.124268,516.790100 
	C2195.995361,487.724121 2190.786865,458.672058 2185.164795,427.960236 
z"/>
<path fill="#02A1FF" opacity="1.000000" stroke="none" 
	d="
M3144.368164,546.747864 
	C3148.149170,534.554260 3150.786133,522.742981 3155.700195,511.970093 
	C3164.387695,492.924774 3180.904053,482.391785 3200.213867,476.242493 
	C3216.400146,471.088013 3233.176514,468.737671 3250.127930,467.577820 
	C3258.392822,467.012360 3266.644775,466.125641 3274.867676,465.105042 
	C3284.505371,463.908813 3290.931396,458.834747 3292.236816,448.826752 
	C3293.606445,438.327637 3295.213623,427.792847 3295.535889,417.237610 
	C3296.206787,395.278229 3295.793701,373.285889 3296.452393,351.325897 
	C3296.729004,342.107391 3298.387451,332.904327 3299.806396,323.754517 
	C3300.900391,316.697632 3305.344238,312.857971 3312.486084,311.623322 
	C3326.405518,309.217041 3340.237549,310.062836 3354.112549,311.868317 
	C3357.686523,312.333374 3359.397949,314.221161 3359.987549,317.543274 
	C3361.204102,324.397186 3363.007080,331.202362 3363.561035,338.108459 
	C3365.391846,360.927155 3367.075195,383.766296 3368.255371,406.626495 
	C3369.881836,438.125854 3371.158936,469.645813 3372.282959,501.167725 
	C3373.194824,526.746216 3373.752441,552.338623 3374.299561,577.928467 
	C3374.868408,604.526550 3375.686279,631.130859 3375.570068,657.728882 
	C3375.446533,685.981018 3374.594238,714.237793 3373.547607,742.473511 
	C3373.205811,751.696228 3371.651611,760.934875 3369.920166,770.026917 
	C3368.367188,778.182922 3363.895752,784.062439 3354.588379,784.379578 
	C3343.985107,784.740906 3333.364746,785.695740 3322.787354,785.340881 
	C3315.597656,785.099731 3309.977539,780.571289 3304.868896,775.480652 
	C3292.080078,762.737366 3293.406738,758.932129 3274.374512,772.408386 
	C3254.796631,786.270630 3233.246826,787.024719 3210.528564,785.436035 
	C3175.573730,782.991516 3160.170410,758.911011 3149.048828,730.762878 
	C3144.627930,719.574402 3142.736328,706.963501 3141.945801,694.853088 
	C3140.366455,670.657288 3140.241211,646.362244 3139.703369,622.103943 
	C3139.150146,597.151306 3140.419189,572.291870 3144.368164,546.747864 
M3224.315186,635.000122 
	C3224.962646,656.575989 3225.510742,678.155579 3226.322266,699.725281 
	C3226.545410,705.658386 3227.082520,711.661682 3228.305420,717.457764 
	C3230.661865,728.625366 3236.359375,732.209717 3247.147949,728.404236 
	C3258.387451,724.439758 3269.243896,719.353760 3280.149414,714.492981 
	C3287.127197,711.382874 3290.622070,705.229004 3291.761963,698.081543 
	C3293.063721,689.916504 3294.151367,681.618225 3294.206055,673.370361 
	C3294.458496,635.418945 3294.441162,597.464294 3294.214355,559.512573 
	C3294.169189,551.929749 3293.255859,544.269775 3291.895752,536.799500 
	C3290.428711,528.742004 3287.065674,526.210449 3278.858154,525.744751 
	C3273.880615,525.462219 3268.828613,525.245728 3263.889893,525.763123 
	C3250.600586,527.155457 3236.109131,531.038208 3230.284912,551.851379 
	C3228.421387,558.510315 3226.796143,565.415344 3226.431641,572.280457 
	C3225.357910,592.500977 3224.970947,612.758057 3224.315186,635.000122 
z"/>
<path fill="#02A1FF" opacity="1.000000" stroke="none" 
	d="
M1489.692139,560.001404 
	C1489.692627,581.991516 1489.922241,602.984985 1489.643066,623.971680 
	C1489.156494,660.555115 1488.571045,697.140259 1487.553589,733.711548 
	C1487.260132,744.267090 1485.748169,754.841553 1484.081909,765.293701 
	C1481.716797,780.129333 1477.466187,784.195557 1462.747681,785.427002 
	C1454.144409,786.146790 1445.418091,785.935669 1436.779053,785.504578 
	C1430.647827,785.198669 1425.603149,782.275757 1421.516968,777.318604 
	C1416.947144,771.774719 1411.706299,766.784058 1406.958984,761.765808 
	C1397.364380,767.119507 1389.162109,772.116028 1380.579590,776.340088 
	C1374.675537,779.245911 1368.360352,782.585754 1362.023804,783.074158 
	C1349.561523,784.034668 1337.090698,787.730652 1324.432739,784.446777 
	C1322.874634,784.042664 1321.038696,784.066162 1319.468628,784.450928 
	C1302.539917,788.599487 1289.643921,780.274292 1277.889404,770.191711 
	C1259.413086,754.343262 1251.419434,733.367371 1250.231079,709.379883 
	C1249.889160,702.475647 1248.374146,695.637329 1247.794800,688.735291 
	C1246.907349,678.158813 1245.934570,667.560852 1245.752808,656.958984 
	C1245.096680,618.700500 1244.485107,580.437134 1244.413696,542.174561 
	C1244.378906,523.582336 1245.511475,504.985229 1246.239380,486.395172 
	C1246.851074,470.771698 1252.945557,467.398438 1265.573730,466.083984 
	C1276.816895,464.913696 1288.050415,465.279572 1299.237549,468.255280 
	C1306.848267,470.279755 1314.898438,470.787048 1322.792114,471.567841 
	C1328.332642,472.115845 1331.351685,474.697449 1331.823486,480.240173 
	C1332.441650,487.501923 1333.569092,494.759857 1333.613037,502.024689 
	C1333.965454,560.317810 1333.932007,618.613892 1334.470215,676.904846 
	C1334.585938,689.454712 1336.524780,701.989136 1337.668213,714.526611 
	C1337.817871,716.166992 1338.023315,717.856384 1338.560425,719.398560 
	C1342.105347,729.578430 1345.075073,731.152832 1355.748779,729.120789 
	C1361.668091,727.993958 1367.083862,726.137939 1372.285034,722.775269 
	C1378.395630,718.824585 1385.096436,715.587219 1391.896362,712.959534 
	C1398.384155,710.452393 1401.548340,706.005798 1402.044189,699.558594 
	C1402.985474,687.320190 1404.084351,675.059753 1404.208130,662.799316 
	C1404.514404,632.482910 1404.065063,602.158875 1404.375488,571.842590 
	C1404.671631,542.913879 1405.545044,513.991211 1406.161377,485.065796 
	C1406.189697,483.736237 1406.284546,482.397644 1406.176514,481.077301 
	C1405.357178,471.059174 1405.984863,469.113678 1415.772339,467.647980 
	C1425.548096,466.184052 1435.675659,465.794342 1445.535522,466.505646 
	C1456.730469,467.313202 1467.848999,469.616028 1478.893433,471.808777 
	C1482.235596,472.472321 1485.869263,474.304749 1488.206665,476.724792 
	C1491.133545,479.755249 1489.762695,483.411591 1487.057129,486.555115 
	C1486.432739,487.280518 1486.973022,489.032196 1487.022461,490.309875 
	C1487.908325,513.207336 1488.800903,536.104492 1489.692139,560.001404 
z"/>
<path fill="#01A0FF" opacity="1.000000" stroke="none" 
	d="
M2991.478027,470.944855 
	C3001.382324,469.163757 3010.556641,466.451111 3019.706055,466.532654 
	C3036.710449,466.684143 3052.078369,472.642487 3065.773438,483.065094 
	C3083.095459,496.248260 3091.558105,514.184631 3093.510254,535.163574 
	C3095.539307,556.967834 3096.976074,578.869629 3097.538330,600.757935 
	C3098.341797,632.060059 3098.423584,663.390625 3098.221191,694.705200 
	C3098.081543,716.302429 3097.015381,737.896179 3096.176758,759.484253 
	C3096.023682,763.424683 3095.155518,767.371155 3094.298096,771.244080 
	C3091.956787,781.817688 3087.966064,785.803894 3077.356201,786.085327 
	C3063.382568,786.455994 3049.361084,786.328796 3035.403076,785.598022 
	C3022.799072,784.938049 3017.262695,780.107117 3014.974121,767.832092 
	C3013.340332,759.070374 3012.519287,750.047546 3012.416748,741.128784 
	C3011.958496,701.148987 3012.495605,661.149231 3011.468018,621.187622 
	C3010.752441,593.354919 3008.304443,565.555298 3006.162598,537.776917 
	C3005.406006,527.959961 3000.788086,524.602112 2991.496582,526.505371 
	C2979.066406,529.051575 2967.257568,533.450195 2956.366943,540.191711 
	C2951.200439,543.389771 2948.083496,547.912903 2946.715088,553.571106 
	C2945.549072,558.390808 2944.573242,563.348633 2944.337158,568.284790 
	C2943.478760,586.207092 2942.604004,604.141846 2942.397705,622.079529 
	C2941.946289,661.391113 2942.115234,700.710449 2941.538818,740.019409 
	C2941.393799,749.905884 2939.858887,759.848938 2938.113770,769.614258 
	C2936.234375,780.131104 2931.044678,785.239441 2920.622314,785.366516 
	C2903.360352,785.577148 2886.080566,784.608948 2868.814453,783.967285 
	C2863.329590,783.763489 2860.336182,780.536072 2859.943848,775.048828 
	C2859.163330,764.129456 2857.802246,753.208252 2857.776123,742.285156 
	C2857.588379,664.291992 2857.598145,586.298035 2857.771729,508.304871 
	C2857.794434,498.039764 2859.042969,487.772705 2859.842529,477.515808 
	C2860.275146,471.966217 2862.552979,467.945007 2868.870605,467.591766 
	C2878.459229,467.055542 2888.114502,465.426483 2897.610840,466.102234 
	C2909.415527,466.942291 2918.767334,473.566772 2926.065186,482.851288 
	C2929.522217,487.249146 2932.838135,491.758087 2936.483643,496.567444 
	C2954.805176,488.025757 2972.770752,479.649902 2991.478027,470.944855 
z"/>
<path fill="#02A1FF" opacity="1.000000" stroke="none" 
	d="
M1983.221924,710.897705 
	C1980.077148,720.161194 1977.943481,728.999695 1974.157227,737.062073 
	C1966.470703,753.429749 1954.089111,766.194885 1938.815186,775.421082 
	C1931.672485,779.735657 1922.800049,782.016052 1914.418457,783.288818 
	C1892.656738,786.593567 1870.654907,785.860657 1848.698975,785.420837 
	C1839.813110,785.242737 1831.065186,785.146790 1822.365723,782.606506 
	C1787.440918,772.408386 1765.315308,749.486633 1755.866089,714.787781 
	C1749.292847,690.649597 1747.419434,665.718079 1747.758667,640.735657 
	C1748.056519,618.802124 1748.156250,596.799866 1750.044189,574.975098 
	C1751.496094,558.190308 1754.453735,541.331604 1758.785645,525.049561 
	C1764.751465,502.626221 1779.022217,487.231293 1801.102417,477.961884 
	C1825.419800,467.753296 1850.619385,466.813141 1876.151489,466.196838 
	C1894.640259,465.750549 1912.319092,470.667572 1930.073486,474.589111 
	C1949.759399,478.937317 1963.653320,490.984406 1972.520264,509.252197 
	C1980.195312,525.064392 1984.022827,541.759521 1985.641846,559.051697 
	C1989.059082,595.550232 1988.335327,632.124756 1988.009888,668.726013 
	C1987.884521,682.826538 1986.364502,696.472290 1983.221924,710.897705 
M1879.994629,525.770142 
	C1875.676392,525.932678 1871.347656,525.957764 1867.041626,526.281860 
	C1849.872437,527.573914 1839.727905,537.297668 1836.675293,550.403748 
	C1832.976562,566.283630 1830.039307,582.236511 1830.257690,598.669800 
	C1830.492554,616.330627 1830.904419,634.023254 1830.128174,651.653198 
	C1829.434814,667.403564 1830.972656,682.818115 1833.827026,698.186340 
	C1837.997925,720.643311 1841.142944,727.738403 1870.546997,726.066528 
	C1872.858032,725.935120 1875.382690,725.859497 1877.391846,724.892761 
	C1881.499268,722.916382 1886.204346,721.127075 1889.077759,717.864441 
	C1894.796631,711.370605 1899.219604,703.809998 1899.805176,694.746338 
	C1901.131348,674.217590 1903.038452,653.698914 1903.484497,633.149475 
	C1903.837036,616.904907 1900.769165,600.484436 1902.143066,584.391663 
	C1903.568481,567.695923 1898.635986,552.854919 1894.016479,537.683960 
	C1892.258911,531.912231 1888.698608,526.838196 1879.994629,525.770142 
z"/>
<path fill="#02A1FF" opacity="1.000000" stroke="none" 
	d="
M3427.675781,615.480591 
	C3427.327148,588.910828 3428.713379,563.410767 3433.873047,538.238464 
	C3437.120605,522.392700 3442.936523,507.556915 3453.495117,495.100281 
	C3465.906494,480.457733 3482.627197,473.440857 3501.030762,470.080353 
	C3522.672607,466.128479 3544.513428,464.130463 3566.479736,466.324829 
	C3588.754150,468.549957 3609.400879,474.762299 3625.471191,491.827637 
	C3634.902100,501.842560 3640.440186,513.752502 3643.988525,526.692871 
	C3648.917236,544.666321 3652.382324,562.911804 3652.331055,581.668701 
	C3652.298584,593.549561 3652.379883,605.431152 3652.275391,617.311157 
	C3652.249023,620.290039 3651.971436,623.322815 3651.339844,626.228760 
	C3649.893066,632.885437 3646.335205,637.955627 3639.171387,639.062683 
	C3630.675537,640.375488 3622.128662,641.860046 3613.567383,642.136475 
	C3598.261719,642.630676 3582.923828,642.037048 3567.608887,642.354675 
	C3556.341797,642.588379 3545.065430,643.271912 3533.837646,644.258911 
	C3520.625732,645.420532 3517.702393,648.752869 3515.555420,661.753174 
	C3512.907959,677.782288 3515.327637,693.513611 3518.315674,709.098328 
	C3520.472900,720.351868 3526.221924,725.152832 3537.594482,725.566589 
	C3555.215576,726.207703 3572.869141,726.070740 3590.508789,726.061951 
	C3608.149902,726.053162 3625.790527,725.747498 3643.432129,725.701782 
	C3646.064209,725.694946 3648.715332,726.306152 3651.327393,726.794006 
	C3657.655029,727.975830 3661.519287,731.651123 3661.644287,738.249939 
	C3661.814453,747.213684 3662.080078,756.217102 3661.444824,765.142334 
	C3660.872314,773.187622 3656.292236,778.916260 3648.054932,780.358704 
	C3638.612549,782.012207 3629.080078,783.772949 3619.537598,784.115479 
	C3594.294678,785.021484 3569.021973,785.645752 3543.767578,785.467651 
	C3529.559082,785.367493 3515.306152,783.935852 3501.176025,782.244568 
	C3482.102051,779.961426 3467.016357,770.028992 3454.658691,755.696777 
	C3438.858154,737.371460 3431.253174,715.725586 3429.755615,691.888489 
	C3428.424561,670.701294 3427.636475,649.478271 3426.793945,628.263672 
	C3426.637695,624.333557 3427.359375,620.368591 3427.675781,615.480591 
M3559.912354,525.879578 
	C3552.925537,525.884155 3545.906738,525.463867 3538.958496,525.984192 
	C3525.650146,526.980774 3518.413574,532.888977 3516.611572,545.866028 
	C3515.123779,556.581238 3512.967529,567.368408 3515.452637,578.477844 
	C3517.649414,588.298340 3519.427979,591.073669 3529.479004,591.523560 
	C3539.452881,591.969849 3549.463135,591.692993 3559.455566,591.570435 
	C3561.396973,591.546631 3563.311035,590.638733 3565.269531,590.374756 
	C3569.682373,589.780090 3571.937500,586.672546 3572.038818,582.908264 
	C3572.486084,566.309631 3573.348389,549.651550 3568.921875,533.332092 
	C3567.858887,529.413513 3565.800537,526.804749 3559.912354,525.879578 
z"/>
<path fill="#02A1FF" opacity="1.000000" stroke="none" 
	d="
M2578.354004,556.776123 
	C2581.472412,543.331116 2583.372559,530.338928 2587.860840,518.312683 
	C2598.790527,489.029053 2621.318359,472.988495 2651.754150,469.960999 
	C2674.158936,467.732330 2696.945557,467.444061 2719.448486,468.566101 
	C2750.526855,470.115753 2773.309570,479.192963 2788.451904,518.875916 
	C2793.128662,531.132629 2796.199463,544.421143 2797.429199,557.479797 
	C2799.482910,579.286804 2799.790283,601.283142 2800.189453,623.211548 
	C2800.416748,635.704407 2797.208252,638.782776 2784.288330,639.761597 
	C2769.060059,640.915283 2753.792969,641.627686 2738.530518,642.235352 
	C2718.937256,643.015442 2699.329346,643.421387 2679.733154,644.139648 
	C2665.104004,644.675781 2658.970459,650.509827 2660.935791,667.567261 
	C2662.263184,679.087708 2662.606689,690.718689 2663.781982,702.260315 
	C2665.444824,718.591187 2671.389648,724.725403 2687.977783,725.475342 
	C2703.916260,726.195923 2719.915283,725.796204 2735.883301,725.570251 
	C2748.829102,725.387085 2761.768555,724.408386 2774.710693,724.411194 
	C2781.970703,724.412781 2789.294922,725.303650 2796.471191,726.505676 
	C2803.382812,727.663269 2807.369385,731.717102 2807.431396,738.760498 
	C2807.518311,748.672607 2806.765869,758.648560 2805.553955,768.496399 
	C2804.702637,775.412720 2800.142334,779.658386 2792.957275,780.699036 
	C2786.731689,781.600647 2780.548340,783.312622 2774.309326,783.513367 
	C2745.387451,784.443909 2716.454102,785.359680 2687.521729,785.461914 
	C2675.311035,785.505005 2663.089355,783.577026 2650.879883,782.463257 
	C2626.449463,780.234680 2609.154785,766.588928 2595.611572,747.340271 
	C2584.846680,732.040649 2578.779785,715.009949 2578.264893,696.161011 
	C2577.411133,664.912842 2576.138184,633.668762 2575.849854,602.415527 
	C2575.712646,587.508606 2577.433350,572.584595 2578.354004,556.776123 
M2715.863525,537.678650 
	C2714.131836,531.798523 2712.290527,526.135010 2704.642090,525.644592 
	C2694.518311,524.995422 2684.650146,526.244568 2675.500244,530.550842 
	C2669.511963,533.369202 2663.111816,536.979797 2662.341797,544.413757 
	C2661.150146,555.919861 2660.469727,567.531616 2660.515381,579.094788 
	C2660.546387,586.923401 2663.070557,590.002625 2671.364258,590.560913 
	C2684.854736,591.469116 2698.497803,591.466675 2711.986816,590.540222 
	C2720.422607,589.960938 2722.648193,586.065430 2721.595703,577.620117 
	C2720.001465,564.827576 2718.007080,552.084900 2715.863525,537.678650 
z"/>
<path fill="#02A1FF" opacity="1.000000" stroke="none" 
	d="
M2532.985352,523.634521 
	C2522.498291,524.317261 2512.840576,524.486938 2503.339355,525.794983 
	C2492.957031,527.224426 2488.213379,532.088196 2486.562012,542.453308 
	C2485.313232,550.292603 2484.820068,558.274902 2484.393555,566.215149 
	C2484.054688,572.526062 2484.248291,578.870789 2484.337646,585.198608 
	C2484.981934,630.772278 2485.551758,676.347290 2486.373291,721.917786 
	C2486.768311,743.842834 2487.672852,765.758545 2488.296875,787.679871 
	C2488.353027,789.654785 2488.044434,791.640015 2487.900146,793.693420 
	C2482.057129,799.102051 2474.711914,797.581482 2467.962402,798.163818 
	C2464.028076,798.503296 2459.980957,797.980896 2456.023438,797.515198 
	C2445.792236,796.311279 2436.833984,792.707275 2430.517090,783.945435 
	C2417.030029,765.238586 2404.629639,746.035217 2401.090088,722.578186 
	C2400.696045,719.966919 2400.515137,717.320068 2400.312744,714.683716 
	C2397.046875,672.152771 2398.832275,629.542236 2398.226562,586.968750 
	C2398.028564,573.042542 2396.946045,559.124878 2396.076416,545.215393 
	C2395.892822,542.279175 2394.836426,539.402283 2394.240234,536.486145 
	C2392.955078,530.199524 2389.242920,526.406860 2382.807617,525.721191 
	C2375.234863,524.914368 2367.636963,524.343506 2360.050293,523.667419 
	C2347.674561,522.564575 2345.890625,520.664429 2345.675049,508.364929 
	C2345.352051,489.951874 2346.026855,489.006561 2363.648193,484.513092 
	C2370.723877,482.708740 2377.895508,481.269226 2384.941895,479.362762 
	C2392.577637,477.296997 2399.018311,473.304749 2402.942383,466.159912 
	C2410.140137,453.055054 2417.086182,439.810547 2424.387451,426.764404 
	C2427.953125,420.392517 2431.828125,414.154419 2436.065918,408.214417 
	C2438.116943,405.339478 2440.963135,402.573639 2444.076172,400.993927 
	C2457.346680,394.259766 2467.569824,398.736298 2471.250244,413.548035 
	C2474.765869,427.696075 2477.005371,442.159729 2479.880859,456.469574 
	C2480.402344,459.064880 2481.117676,461.650024 2482.037109,464.131042 
	C2484.366699,470.416809 2488.806152,473.637909 2495.704590,473.662537 
	C2506.018066,473.699371 2516.330078,474.042847 2526.642822,474.252258 
	C2527.641846,474.272552 2528.668457,474.119476 2529.636475,474.296814 
	C2542.691895,476.688538 2550.321289,478.282837 2550.293945,496.695801 
	C2550.287598,501.013763 2550.069580,505.348999 2549.638428,509.645142 
	C2548.695312,519.042297 2547.376953,520.423767 2537.787109,522.871887 
	C2536.505615,523.199036 2535.185791,523.376404 2532.985352,523.634521 
z"/>
<path fill="#02A1FF" opacity="1.000000" stroke="none" 
	d="
M1573.536865,584.769836 
	C1573.061035,578.223389 1572.733276,572.607971 1572.295776,567.001038 
	C1571.599609,558.079407 1571.270752,549.098999 1569.977173,540.261841 
	C1568.463013,529.918213 1563.557861,526.108032 1553.135742,525.646179 
	C1544.531006,525.264832 1535.883057,525.211975 1527.342041,524.240845 
	C1520.732666,523.489319 1518.292725,519.983032 1518.622070,513.627808 
	C1518.826904,509.677673 1519.534180,505.750244 1519.671021,501.800659 
	C1519.929810,494.327820 1523.072998,489.039154 1530.461792,486.854095 
	C1537.780884,484.689667 1545.033203,481.995209 1552.517456,480.757935 
	C1568.225342,478.161102 1579.180176,470.410278 1585.626465,455.487305 
	C1591.792725,441.212372 1599.135132,427.444244 1606.014771,413.480042 
	C1606.892090,411.699310 1608.237305,410.150421 1609.127686,408.374725 
	C1614.623657,397.413361 1624.775269,397.950104 1634.523071,398.567169 
	C1640.187378,398.925690 1642.874268,403.667053 1644.079590,408.806000 
	C1646.730957,420.111664 1649.209106,431.458740 1651.669556,442.808044 
	C1652.583008,447.022003 1653.145752,451.311676 1654.046387,455.528778 
	C1656.694702,467.929718 1661.049683,471.358948 1673.838135,472.296021 
	C1685.722900,473.166840 1697.622559,474.146210 1709.424316,475.750061 
	C1721.182983,477.348053 1722.836426,478.629028 1724.413818,490.575928 
	C1725.430542,498.277496 1724.573242,506.344788 1723.643066,514.139221 
	C1723.114746,518.566101 1719.966187,521.880615 1714.902466,522.446167 
	C1705.704590,523.473328 1696.531616,525.291443 1687.318970,525.503967 
	C1666.022949,525.995117 1661.042358,530.093750 1659.818237,551.525940 
	C1658.758179,570.087036 1657.992798,588.682373 1657.779297,607.270508 
	C1657.446777,636.243164 1657.590088,665.222900 1657.720093,694.198853 
	C1657.849976,723.118896 1659.879272,751.868408 1665.801147,780.269714 
	C1666.592896,784.067017 1665.909790,788.171753 1665.909790,792.478271 
	C1664.933594,793.149170 1663.942749,794.024902 1662.797974,794.587463 
	C1648.330444,801.697327 1617.578369,799.029602 1606.668091,789.482971 
	C1603.988770,787.138550 1601.561035,784.174500 1599.932251,781.022705 
	C1594.600952,770.706055 1589.763794,760.135437 1584.601440,749.729614 
	C1577.692505,735.803162 1574.264526,721.168823 1574.247681,705.565918 
	C1574.204712,665.612000 1573.859985,625.658386 1573.536865,584.769836 
z"/>
<path fill="#FDFEFF" opacity="1.000000" stroke="none" 
	d="
M648.217285,348.270630 
	C654.836121,348.272980 660.506897,348.114685 666.165588,348.308960 
	C677.194092,348.687653 682.156494,352.062958 685.528625,362.201660 
	C687.403320,367.838165 689.116150,373.740479 689.514404,379.617004 
	C690.794373,398.504700 692.009155,417.430023 692.207825,436.351807 
	C692.928162,504.940674 694.080444,573.543640 693.307617,642.121460 
	C692.938171,674.907471 693.227844,707.912476 687.815674,740.523560 
	C685.950439,751.762268 683.155396,762.641235 677.987244,772.768738 
	C671.937561,784.623657 662.341003,792.920044 649.440491,795.877441 
	C637.219727,798.679077 624.642456,801.044128 612.162903,801.375183 
	C582.550842,802.160950 552.896118,802.012817 523.274597,801.430725 
	C512.076355,801.210632 500.782867,799.433472 489.779144,797.168945 
	C471.751068,793.458679 459.266022,782.406860 453.762421,764.841187 
	C450.208618,753.498596 447.526825,741.719360 446.039307,729.935730 
	C444.338593,716.463440 443.958893,702.775635 443.764069,689.170593 
	C442.920288,630.253906 442.119263,571.334595 441.769501,512.413452 
	C441.540161,473.774841 441.946655,435.129517 442.403809,396.491180 
	C442.576141,381.926788 443.693451,367.373596 444.411346,352.151001 
	C447.568085,351.517883 450.714752,350.512665 453.912048,350.311157 
	C466.834839,349.496765 479.769012,348.485352 492.706757,348.361603 
	C522.363647,348.077881 552.027039,348.475342 581.683899,348.191284 
	C597.950928,348.035461 614.206482,346.853546 630.474854,346.562408 
	C636.059204,346.462463 641.666748,347.662933 648.217285,348.270630 
M574.305786,650.081848 
	C578.103760,657.404053 584.861877,656.225403 590.961609,655.217041 
	C597.223633,654.181824 598.954529,648.608154 599.679382,643.205994 
	C600.648071,635.986816 601.492065,628.699463 601.614075,621.428467 
	C601.893616,604.780090 602.065552,588.113098 601.573730,571.474548 
	C601.251587,560.575134 600.702209,549.502136 598.490356,538.873962 
	C592.746948,511.275574 561.710876,489.011688 533.698975,492.548859 
	C524.768677,493.676544 514.949280,493.943207 507.408051,500.242371 
	C500.276581,506.199219 493.312927,512.389587 486.644287,518.857483 
	C481.494843,523.851990 478.694458,530.349182 477.872803,537.455688 
	C476.997894,545.022217 476.345245,552.633850 476.043884,560.243530 
	C475.320892,578.498474 474.772400,596.761658 474.332245,615.025879 
	C474.118286,623.904358 473.999146,632.806030 474.390259,641.672791 
	C474.850464,652.105164 478.924133,655.130859 487.400970,655.780640 
	C494.172180,656.299744 498.583282,653.258423 500.717865,647.611145 
	C502.678009,642.425415 503.356262,636.718750 504.276215,631.187866 
	C504.979218,626.961365 505.012085,622.626648 505.633209,618.382507 
	C507.196289,607.702332 508.627808,606.108704 519.242737,605.795898 
	C531.888123,605.423401 544.555359,605.497253 557.207031,605.722290 
	C569.115356,605.934082 571.476074,608.582764 571.653931,620.820801 
	C571.726501,625.815674 571.397278,630.831482 571.748718,635.802551 
	C572.049683,640.060791 573.061096,644.268738 574.305786,650.081848 
M634.286926,563.000061 
	C634.748108,587.943604 635.183167,612.887695 635.699402,637.830078 
	C635.775024,641.484009 636.088013,645.149353 636.559937,648.774353 
	C637.106750,652.973511 639.937073,655.017700 643.928955,655.572021 
	C650.875854,656.536682 656.066101,653.060303 656.922607,645.529968 
	C658.308472,633.345886 659.343201,621.074463 659.607422,608.820068 
	C660.167480,582.846558 660.183044,556.860535 660.319397,530.879089 
	C660.366516,521.898743 659.836792,512.908508 660.109985,503.939240 
	C660.242004,499.605713 660.136169,496.026337 655.633667,493.969574 
	C649.743103,491.278717 643.987427,491.280548 638.585754,494.945007 
	C634.982849,497.389191 633.288147,500.605988 635.126770,505.248077 
	C635.939270,507.299530 635.673462,509.847412 635.616211,512.162964 
	C635.214294,528.442993 634.739075,544.721313 634.286926,563.000061 
z"/>
<path fill="#FEFFFF" opacity="1.000000" stroke="none" 
	d="
M412.310547,652.000000 
	C412.099274,688.972656 411.896606,724.945312 411.655884,760.917786 
	C411.640411,763.232849 411.385468,765.551514 411.148224,767.858887 
	C410.585327,773.333862 407.503693,776.266174 402.010345,776.178833 
	C395.361542,776.073181 388.405487,776.850830 382.125641,775.190918 
	C355.734741,768.215271 329.592438,759.987671 306.502075,745.061401 
	C293.455475,736.627563 281.413055,726.418030 269.896362,715.934021 
	C264.162140,710.713989 260.385925,703.228943 256.150269,696.500244 
	C246.605850,681.338135 235.094879,667.173157 229.737991,649.762695 
	C225.950165,637.451782 223.103882,624.822876 220.422974,612.211426 
	C219.054825,605.775391 218.846558,599.075317 218.336014,592.477417 
	C215.935837,561.458862 226.070572,532.779358 235.254990,503.992249 
	C240.584122,487.289001 249.892014,472.677002 261.692627,459.797058 
	C280.486908,439.283722 302.111420,422.245239 326.370605,408.594574 
	C342.961304,399.259003 360.279480,391.783020 379.168579,388.494934 
	C382.102570,387.984222 385.110779,387.732697 388.090332,387.679962 
	C401.522125,387.442169 404.281586,389.221741 406.944275,402.642822 
	C408.678497,411.383911 409.255859,420.405121 409.733307,429.333923 
	C410.619843,445.912598 411.480316,462.512390 411.599579,479.108765 
	C412.011414,536.404541 412.099152,593.702759 412.310547,652.000000 
z"/>
<path fill="#FAFDFF" opacity="1.000000" stroke="none" 
	d="
M1046.293091,436.440125 
	C1048.740967,423.329865 1051.089111,411.077881 1053.437256,398.825897 
	C1054.188110,398.811920 1054.939087,398.797943 1055.689941,398.783936 
	C1057.644653,407.284058 1059.949463,415.721069 1061.494263,424.295044 
	C1068.969116,465.777405 1076.324707,507.281738 1083.537109,548.810547 
	C1086.127319,563.724121 1084.683838,565.568054 1069.265503,566.092773 
	C1058.299805,566.465942 1047.277954,566.176270 1036.321899,565.511902 
	C1028.510132,565.038086 1026.894165,563.238770 1027.809082,555.305359 
	C1029.670654,539.162170 1032.068237,523.071960 1034.613403,507.018341 
	C1038.302246,483.751251 1042.317383,460.535889 1046.293091,436.440125 
z"/>
<path fill="#FAFDFF" opacity="1.000000" stroke="none" 
	d="
M2185.387695,428.787292 
	C2190.786865,458.672058 2195.995361,487.724121 2201.124268,516.790100 
	C2203.428223,529.844055 2205.638184,542.915466 2207.762695,555.999695 
	C2208.844482,562.662903 2207.573486,564.343201 2201.138916,565.649048 
	C2193.932861,567.111633 2160.913330,566.214783 2151.197998,564.014771 
	C2159.738281,507.617493 2168.295654,451.106415 2176.852783,394.595337 
	C2177.261963,394.493011 2177.671143,394.390686 2178.080322,394.288330 
	C2180.441895,405.512299 2182.803223,416.736267 2185.387695,428.787292 
z"/>
<path fill="#FDFEFF" opacity="1.000000" stroke="none" 
	d="
M3224.315186,634.000488 
	C3224.970947,612.758057 3225.357910,592.500977 3226.431641,572.280457 
	C3226.796143,565.415344 3228.421387,558.510315 3230.284912,551.851379 
	C3236.109131,531.038208 3250.600586,527.155457 3263.889893,525.763123 
	C3268.828613,525.245728 3273.880615,525.462219 3278.858154,525.744751 
	C3287.065674,526.210449 3290.428711,528.742004 3291.895752,536.799500 
	C3293.255859,544.269775 3294.169189,551.929749 3294.214355,559.512573 
	C3294.441162,597.464294 3294.458496,635.418945 3294.206055,673.370361 
	C3294.151367,681.618225 3293.063721,689.916504 3291.761963,698.081543 
	C3290.622070,705.229004 3287.127197,711.382874 3280.149414,714.492981 
	C3269.243896,719.353760 3258.387451,724.439758 3247.147949,728.404236 
	C3236.359375,732.209717 3230.661865,728.625366 3228.305420,717.457764 
	C3227.082520,711.661682 3226.545410,705.658386 3226.322266,699.725281 
	C3225.510742,678.155579 3224.962646,656.575989 3224.315186,634.000488 
z"/>
<path fill="#FCFEFF" opacity="1.000000" stroke="none" 
	d="
M1880.845215,525.894775 
	C1888.698608,526.838196 1892.258911,531.912231 1894.016479,537.683960 
	C1898.635986,552.854919 1903.568481,567.695923 1902.143066,584.391663 
	C1900.769165,600.484436 1903.837036,616.904907 1903.484497,633.149475 
	C1903.038452,653.698914 1901.131348,674.217590 1899.805176,694.746338 
	C1899.219604,703.809998 1894.796631,711.370605 1889.077759,717.864441 
	C1886.204346,721.127075 1881.499268,722.916382 1877.391846,724.892761 
	C1875.382690,725.859497 1872.858032,725.935120 1870.546997,726.066528 
	C1841.142944,727.738403 1837.997925,720.643311 1833.827026,698.186340 
	C1830.972656,682.818115 1829.434814,667.403564 1830.128174,651.653198 
	C1830.904419,634.023254 1830.492554,616.330627 1830.257690,598.669800 
	C1830.039307,582.236511 1832.976562,566.283630 1836.675293,550.403748 
	C1839.727905,537.297668 1849.872437,527.573914 1867.041626,526.281860 
	C1871.347656,525.957764 1875.676392,525.932678 1880.845215,525.894775 
z"/>
<path fill="#FAFDFF" opacity="1.000000" stroke="none" 
	d="
M3560.780029,526.025391 
	C3565.800537,526.804749 3567.858887,529.413513 3568.921875,533.332092 
	C3573.348389,549.651550 3572.486084,566.309631 3572.038818,582.908264 
	C3571.937500,586.672546 3569.682373,589.780090 3565.269531,590.374756 
	C3563.311035,590.638733 3561.396973,591.546631 3559.455566,591.570435 
	C3549.463135,591.692993 3539.452881,591.969849 3529.479004,591.523560 
	C3519.427979,591.073669 3517.649414,588.298340 3515.452637,578.477844 
	C3512.967529,567.368408 3515.123779,556.581238 3516.611572,545.866028 
	C3518.413574,532.888977 3525.650146,526.980774 3538.958496,525.984192 
	C3545.906738,525.463867 3552.925537,525.884155 3560.780029,526.025391 
z"/>
<path fill="#FAFDFF" opacity="1.000000" stroke="none" 
	d="
M2716.023193,538.499878 
	C2718.007080,552.084900 2720.001465,564.827576 2721.595703,577.620117 
	C2722.648193,586.065430 2720.422607,589.960938 2711.986816,590.540222 
	C2698.497803,591.466675 2684.854736,591.469116 2671.364258,590.560913 
	C2663.070557,590.002625 2660.546387,586.923401 2660.515381,579.094788 
	C2660.469727,567.531616 2661.150146,555.919861 2662.341797,544.413757 
	C2663.111816,536.979797 2669.511963,533.369202 2675.500244,530.550842 
	C2684.650146,526.244568 2694.518311,524.995422 2704.642090,525.644592 
	C2712.290527,526.135010 2714.131836,531.798523 2716.023193,538.499878 
z"/>
<path fill="#05A2FF" opacity="1.000000" stroke="none" 
	d="
M574.031982,649.290405 
	C573.061096,644.268738 572.049683,640.060791 571.748718,635.802551 
	C571.397278,630.831482 571.726501,625.815674 571.653931,620.820801 
	C571.476074,608.582764 569.115356,605.934082 557.207031,605.722290 
	C544.555359,605.497253 531.888123,605.423401 519.242737,605.795898 
	C508.627808,606.108704 507.196289,607.702332 505.633209,618.382507 
	C505.012085,622.626648 504.979218,626.961365 504.276215,631.187866 
	C503.356262,636.718750 502.678009,642.425415 500.717865,647.611145 
	C498.583282,653.258423 494.172180,656.299744 487.400970,655.780640 
	C478.924133,655.130859 474.850464,652.105164 474.390259,641.672791 
	C473.999146,632.806030 474.118286,623.904358 474.332245,615.025879 
	C474.772400,596.761658 475.320892,578.498474 476.043884,560.243530 
	C476.345245,552.633850 476.997894,545.022217 477.872803,537.455688 
	C478.694458,530.349182 481.494843,523.851990 486.644287,518.857483 
	C493.312927,512.389587 500.276581,506.199219 507.408051,500.242371 
	C514.949280,493.943207 524.768677,493.676544 533.698975,492.548859 
	C561.710876,489.011688 592.746948,511.275574 598.490356,538.873962 
	C600.702209,549.502136 601.251587,560.575134 601.573730,571.474548 
	C602.065552,588.113098 601.893616,604.780090 601.614075,621.428467 
	C601.492065,628.699463 600.648071,635.986816 599.679382,643.205994 
	C598.954529,648.608154 597.223633,654.181824 590.961609,655.217041 
	C584.861877,656.225403 578.103760,657.404053 574.031982,649.290405 
M531.970581,522.350525 
	C522.289185,524.146301 514.723145,529.103088 509.959259,537.772644 
	C505.720581,545.486389 504.676758,554.057068 505.275696,562.629211 
	C505.941437,572.157654 508.107239,574.036377 517.623230,574.187256 
	C531.572815,574.408508 545.531616,574.419495 559.480469,574.175537 
	C568.227478,574.022522 571.890137,570.760620 571.426086,561.927490 
	C571.034180,554.466492 569.307312,546.868652 566.864197,539.781921 
	C564.513123,532.962585 558.883301,528.178955 551.957092,526.024841 
	C546.026855,524.180420 539.737061,523.491882 531.970581,522.350525 
z"/>
<path fill="#08A2FF" opacity="1.000000" stroke="none" 
	d="
M634.287048,562.000122 
	C634.739075,544.721313 635.214294,528.442993 635.616211,512.162964 
	C635.673462,509.847412 635.939270,507.299530 635.126770,505.248077 
	C633.288147,500.605988 634.982849,497.389191 638.585754,494.945007 
	C643.987427,491.280548 649.743103,491.278717 655.633667,493.969574 
	C660.136169,496.026337 660.242004,499.605713 660.109985,503.939240 
	C659.836792,512.908508 660.366516,521.898743 660.319397,530.879089 
	C660.183044,556.860535 660.167480,582.846558 659.607422,608.820068 
	C659.343201,621.074463 658.308472,633.345886 656.922607,645.529968 
	C656.066101,653.060303 650.875854,656.536682 643.928955,655.572021 
	C639.937073,655.017700 637.106750,652.973511 636.559937,648.774353 
	C636.088013,645.149353 635.775024,641.484009 635.699402,637.830078 
	C635.183167,612.887695 634.748108,587.943604 634.287048,562.000122 
z"/>
<path fill="#FCFEFF" opacity="1.000000" stroke="none" 
	d="
M532.788452,522.321289 
	C539.737061,523.491882 546.026855,524.180420 551.957092,526.024841 
	C558.883301,528.178955 564.513123,532.962585 566.864197,539.781921 
	C569.307312,546.868652 571.034180,554.466492 571.426086,561.927490 
	C571.890137,570.760620 568.227478,574.022522 559.480469,574.175537 
	C545.531616,574.419495 531.572815,574.408508 517.623230,574.187256 
	C508.107239,574.036377 505.941437,572.157654 505.275696,562.629211 
	C504.676758,554.057068 505.720581,545.486389 509.959259,537.772644 
	C514.723145,529.103088 522.289185,524.146301 532.788452,522.321289 
z"/>
</svg>