<svg xmlns="http://www.w3.org/2000/svg" viewBox="0 0 100 100" role="img">
  <title>ERPCon</title>
  <!-- Hub lines -->
  <line x1="50" y1="30" x2="50" y2="18" stroke="#1d5a8a" stroke-width="2" fill="none"/>
  <line x1="62" y1="36" x2="73" y2="25" stroke="#1d5a8a" stroke-width="2" fill="none"/>
  <line x1="68" y1="54" x2="81" y2="51" stroke="#1d5a8a" stroke-width="2" fill="none"/>
  <line x1="62" y1="72" x2="73" y2="83" stroke="#1d5a8a" stroke-width="2" fill="none"/>
  <line x1="50" y1="78" x2="50" y2="90" stroke="#1d5a8a" stroke-width="2" fill="none"/>
  <line x1="38" y1="72" x2="27" y2="83" stroke="#1d5a8a" stroke-width="2" fill="none"/>
  <line x1="32" y1="54" x2="19" y2="51" stroke="#1d5a8a" stroke-width="2" fill="none"/>
  <line x1="38" y1="36" x2="27" y2="25" stroke="#1d5a8a" stroke-width="2" fill="none"/>
  <!-- Outer nodes -->
  <circle cx="50" cy="12" r="6" fill="none" stroke="#1ab4e8" stroke-width="2"/>
  <circle cx="79" cy="20" r="6" fill="none" stroke="#1ab4e8" stroke-width="2"/>
  <circle cx="88" cy="49" r="6" fill="none" stroke="#1ab4e8" stroke-width="2"/>
  <circle cx="79" cy="88" r="6" fill="none" stroke="#1ab4e8" stroke-width="2"/>
  <circle cx="50" cy="96" r="6" fill="none" stroke="#1ab4e8" stroke-width="2"/>
  <circle cx="21" cy="88" r="6" fill="none" stroke="#1ab4e8" stroke-width="2"/>
  <circle cx="12" cy="49" r="6" fill="none" stroke="#1ab4e8" stroke-width="2"/>
  <circle cx="21" cy="20" r="6" fill="none" stroke="#1ab4e8" stroke-width="2"/>
  <!-- Hexagon -->
  <polygon points="50,27 66,36 66,55 50,64 34,55 34,36" fill="none" stroke="#1d5a8a" stroke-width="3"/>
  <!-- Cube -->
  <polygon points="50,30 63,37 50,44 37,37" fill="#a8d8f0"/>
  <polygon points="37,37 50,44 50,58 37,51" fill="#2a8fc4"/>
  <polygon points="63,37 63,51 50,58 50,44" fill="#1d5a8a"/>
</svg>
