<svg xmlns="http://www.w3.org/2000/svg" viewBox="0 0 300 140" role="img">
  <title>ERPCon Gestão de Resultados</title>
  <!-- Hub lines -->
  <line x1="75" y1="68" x2="75" y2="52" stroke="#1d5a8a" stroke-width="2.5" fill="none"/>
  <line x1="88" y1="74" x2="101" y2="61" stroke="#1d5a8a" stroke-width="2.5" fill="none"/>
  <line x1="95" y1="95" x2="112" y2="91" stroke="#1d5a8a" stroke-width="2.5" fill="none"/>
  <line x1="88" y1="118" x2="101" y2="131" stroke="#1d5a8a" stroke-width="2.5" fill="none"/>
  <line x1="75" y1="126" x2="75" y2="142" stroke="#1d5a8a" stroke-width="2.5" fill="none"/>
  <line x1="62" y1="118" x2="49" y2="131" stroke="#1d5a8a" stroke-width="2.5" fill="none"/>
  <line x1="55" y1="95" x2="38" y2="91" stroke="#1d5a8a" stroke-width="2.5" fill="none"/>
  <line x1="62" y1="74" x2="49" y2="61" stroke="#1d5a8a" stroke-width="2.5" fill="none"/>
  <!-- Outer nodes -->
  <circle cx="75" cy="46" r="7" fill="none" stroke="#1ab4e8" stroke-width="2.5"/>
  <circle cx="108" cy="55" r="7" fill="none" stroke="#1ab4e8" stroke-width="2.5"/>
  <circle cx="119" cy="88" r="7" fill="none" stroke="#1ab4e8" stroke-width="2.5"/>
  <circle cx="108" cy="137" r="7" fill="none" stroke="#1ab4e8" stroke-width="2.5"/>
  <circle cx="75" cy="148" r="7" fill="none" stroke="#1ab4e8" stroke-width="2.5"/>
  <circle cx="42" cy="137" r="7" fill="none" stroke="#1ab4e8" stroke-width="2.5"/>
  <circle cx="31" cy="88" r="7" fill="none" stroke="#1ab4e8" stroke-width="2.5"/>
  <circle cx="42" cy="55" r="7" fill="none" stroke="#1ab4e8" stroke-width="2.5"/>
  <!-- Hexagon -->
  <polygon points="75,65 95,76 95,98 75,109 55,98 55,76" fill="none" stroke="#1d5a8a" stroke-width="3"/>
  <!-- Cube -->
  <polygon points="75,68 90,76 75,84 60,76" fill="#a8d8f0"/>
  <polygon points="60,76 75,84 75,100 60,92" fill="#2a8fc4"/>
  <polygon points="90,76 90,92 75,100 75,84" fill="#1d5a8a"/>
  <!-- Text -->
  <text x="135" y="92" font-family="Arial Black, sans-serif" font-weight="900" font-size="48" fill="#1d5a8a" letter-spacing="-1">ERP</text>
  <text x="135" y="133" font-family="Arial Black, sans-serif" font-weight="900" font-size="48" fill="#1ab4e8" letter-spacing="-1">CON</text>
  <text x="136" y="150" font-family="Arial, sans-serif" font-weight="700" font-size="10" fill="#2a8fc4" letter-spacing="2">GESTÃO DE RESULTADOS</text>
</svg>
